<svg xmlns="http://www.w3.org/2000/svg" viewBox="0 0 25.5 19.96"><defs><style>.cls-1{fill:#8fc84e;opacity:0.5;}.cls-2{fill:#008b8c;}</style></defs><g id="Layer_2" data-name="Layer 2"><g id="_1" data-name="1"><g id="Capa_7" data-name="Capa 7"><path class="cls-1" d="M17.16,16.29h1.71V20H17.16Z"/><path class="cls-1" d="M24,14.51h0a2.25,2.25,0,0,1-1.56-.62,2.29,2.29,0,0,1-3.13,0,2.3,2.3,0,0,1-3.14,0,2.25,2.25,0,0,1-1.56.62h0a2.33,2.33,0,0,1-.53-.07v4.67a.85.85,0,0,0,.85.85h1.59V16.29H16.3a.37.37,0,1,1,0-.73h5.87a.37.37,0,1,1,0,.73h-.12V20h1.59a.86.86,0,0,0,.86-.85V14.44A2.42,2.42,0,0,1,24,14.51Z"/><path class="cls-1" d="M19.6,16.29h1.72V20H19.6Z"/><path class="cls-1" d="M16.56,10.55h2.31V7.45H17.25a.31.31,0,0,1,0,.09Z"/><path class="cls-1" d="M21.91,10.55l-.68-3a.31.31,0,0,1,0-.09H19.6v3.1Z"/><path class="cls-1" d="M14.52,13.78h0a1.57,1.57,0,0,0,1.21-.58V11.28H13v.91a1.59,1.59,0,0,0,1.55,1.59Z"/><path class="cls-1" d="M22,7.44l.7,3.11h2.68L24.08,7.74a.53.53,0,0,0-.48-.3Z"/><path class="cls-1" d="M15.81,10.55l.7-3.11H14.87a.53.53,0,0,0-.48.3l-1.26,2.81Z"/><path class="cls-1" d="M18.87,13.22V11.28h-2.4v2a1.6,1.6,0,0,0,1.19.55,1.58,1.58,0,0,0,1.2-.56Z"/><path class="cls-1" d="M22,13.23v-2H19.6v1.94a1.58,1.58,0,0,0,1.2.56A1.55,1.55,0,0,0,22,13.23Z"/><path class="cls-1" d="M25.5,12.19v-.91H22.73V13.2a1.58,1.58,0,0,0,1.21.58h0a1.59,1.59,0,0,0,1.55-1.59Z"/><path class="cls-2" d="M17.22,1.38A3.72,3.72,0,0,0,14.27,0H5.08A3.85,3.85,0,0,0,2,1.5,9.68,9.68,0,0,0,9,17.08l.65,0a9.57,9.57,0,0,0,6.61-2.61,9.67,9.67,0,0,0,.93-13.11ZM15.83,14a8.89,8.89,0,0,1-6.75,2.41A9,9,0,0,1,2.55,1.92,3.18,3.18,0,0,1,5.08.67h9.19A3.07,3.07,0,0,1,16.7,1.8a8.87,8.87,0,0,1,2,5.63A8.91,8.91,0,0,1,15.83,14Z"/><path class="cls-2" d="M15.81,2.71a3,3,0,0,0-2.35-1.1H5.89a3.05,3.05,0,0,0-2.43,1.2A7.86,7.86,0,0,0,9.15,15.47l.53,0a7.78,7.78,0,0,0,5.37-2.13,7.89,7.89,0,0,0,2.49-5.74A7.78,7.78,0,0,0,15.81,2.71Zm-1,10.41A7.53,7.53,0,0,1,3.72,3,2.74,2.74,0,0,1,5.89,2h7.57a2.65,2.65,0,0,1,2.09,1,7.44,7.44,0,0,1,1.65,4.7A7.54,7.54,0,0,1,14.82,13.12Z"/><path class="cls-2" d="M7.39,5.6A1.54,1.54,0,1,0,5.86,4.07,1.54,1.54,0,0,0,7.39,5.6Zm0-2.73a1.2,1.2,0,1,1-1.2,1.2A1.2,1.2,0,0,1,7.39,2.87Z"/><path class="cls-2" d="M12.31,5.6a1.54,1.54,0,1,0-1.54-1.53A1.54,1.54,0,0,0,12.31,5.6Zm0-2.73a1.2,1.2,0,1,1-1.21,1.2A1.2,1.2,0,0,1,12.31,2.87Z"/><path class="cls-2" d="M7,7.76A2.06,2.06,0,1,0,5,9.82,2.06,2.06,0,0,0,7,7.76ZM5,9.48A1.73,1.73,0,1,1,6.7,7.76,1.72,1.72,0,0,1,5,9.48Z"/><path class="cls-2" d="M7.39,9.91A2.06,2.06,0,1,0,9.46,12,2.07,2.07,0,0,0,7.39,9.91Zm0,3.79A1.73,1.73,0,1,1,9.12,12,1.73,1.73,0,0,1,7.39,13.7Z"/><path class="cls-2" d="M12.31,9.91A2.06,2.06,0,1,0,14.37,12,2.07,2.07,0,0,0,12.31,9.91Zm0,3.79A1.73,1.73,0,1,1,14,12,1.73,1.73,0,0,1,12.31,13.7Z"/><path class="cls-2" d="M11.76,7.76A2.06,2.06,0,1,0,9.7,9.82,2.06,2.06,0,0,0,11.76,7.76ZM9.7,9.48a1.73,1.73,0,1,1,1.73-1.72A1.73,1.73,0,0,1,9.7,9.48Z"/><path class="cls-2" d="M14.43,5.7a2.06,2.06,0,1,0,2.06,2.06A2.07,2.07,0,0,0,14.43,5.7Zm0,3.78a1.73,1.73,0,1,1,1.72-1.72A1.72,1.72,0,0,1,14.43,9.48Z"/></g></g></g></svg>