<?xml version="1.0" encoding="UTF-8" standalone="no"?>
<!DOCTYPE svg PUBLIC "-//W3C//DTD SVG 1.1//EN" "http://www.w3.org/Graphics/SVG/1.1/DTD/svg11.dtd">
<svg xmlns="http://www.w3.org/2000/svg" xmlns:xlink="http://www.w3.org/1999/xlink" version="1.1" width="870.236pt" height="623.622pt" viewBox="0 0 870.236 623.622">
<g enable-background="new">
<g>
<g id="Layer-1" data-name="guías">
</g>
<g id="Layer-1" data-name="dentro">
<clipPath id="cp0">
<path transform="matrix(1,0,0,-1,0,623.622)" d="M 0 623.622 L 870.236 623.622 L 870.236 0 L 0 0 Z "/>
</clipPath>
<g clip-path="url(#cp0)">
<path transform="matrix(1,0,0,-1,2030.836,610.0691)" d="M 0 0 C -158.785 31.087 -344.404 53.924 -532.947 60.282 C -1148.222 81.029 -1676.872 -60.795 -1893.056 -280.237 C -1931.17 -318.926 -1907.535 -565.01 -1924.987 -608.058 L -84.887 -670.105 " fill="#b0d46b"/>
<path transform="matrix(1,0,0,-1,1802.642,575.1574)" d="M 0 0 C -911.56 106.382 -1609.554 -133.715 -1751.613 -426.073 L -1668.759 -431.084 C -1650.265 -397.821 -1385.075 89.309 0 0 " fill="#97ca54"/>
<path transform="matrix(1,0,0,-1,118.8858,908.95156)" stroke-width="3" stroke-linecap="round" stroke-linejoin="round" fill="none" stroke="#006160" d="M 0 0 C 64.79 72.151 162.866 136.558 286.514 190.29 C 555.891 307.349 946.639 373.743 1379.004 359.164 C 1551.995 353.331 1717.465 335.014 1870.45 306.493 L 1864.666 77.963 L 0 0 Z "/>
<path transform="matrix(1,0,0,-1,940.1659,627.6144)" d="M 0 0 L -74.99 0 C -75.003 .276 -75.017 .551 -75.017 .829 C -75.017 13.137 -62.319 23.114 -46.656 23.114 C -45.207 23.114 -43.784 23.027 -42.393 22.863 C -34.934 52.703 -1.476 75.217 38.687 75.217 C 55.557 75.217 71.236 71.237 84.308 64.418 " fill="#bdd96d"/>
<path transform="matrix(1,0,0,-1,940.1659,627.6144)" stroke-width="2" stroke-linecap="round" stroke-linejoin="round" fill="none" stroke="#448688" d="M 0 0 L -74.99 0 C -75.003 .276 -75.017 .551 -75.017 .829 C -75.017 13.137 -62.319 23.114 -46.656 23.114 C -45.207 23.114 -43.784 23.027 -42.393 22.863 C -34.934 52.703 -1.476 75.217 38.687 75.217 C 55.557 75.217 71.236 71.237 84.308 64.418 "/>
<path transform="matrix(1,0,0,-1,1018.5346,562.7191)" d="M 0 0 C -24.57 5.456 -97.942 1.804 -102.214 -54.356 C -102.214 -54.356 -123.977 -46.763 -132.8 -64.895 L -153.359 -64.895 C -153.359 -64.895 -150.486 -41.294 -120.762 -42.033 C -120.762 -42.033 -93.985 35.692 .436 1.606 C 1.448 1.241 1.063 -.236 0 0 " fill="#8fc84d"/>
<path transform="matrix(1,0,0,-1,940.1659,627.6144)" stroke-width="2" stroke-linecap="round" stroke-linejoin="round" fill="none" stroke="#448688" d="M 0 0 L -74.99 0 C -75.003 .276 -75.017 .551 -75.017 .829 C -75.017 13.137 -62.319 23.114 -46.656 23.114 C -45.207 23.114 -43.784 23.027 -42.393 22.863 C -34.934 52.703 -1.476 75.217 38.687 75.217 C 55.557 75.217 71.236 71.237 84.308 64.418 "/>
</g>
<g id="Layer-1" data-name="3">
</g>
<g id="Layer-1" data-name="2">
</g>
<g id="Layer-1" data-name="1">
</g>
<g id="Layer-1" data-name="fuera">
</g>
<path transform="matrix(1,0,0,-1,0,623.622)" d="M 0 3.055 L 870.236 3.055 L 870.236 623.621 L 0 623.621 Z " fill="#d0eced"/>
<clipPath id="cp1">
<path transform="matrix(1,0,0,-1,0,623.622)" d="M 0 623.622 L 870.236 623.622 L 870.236 0 L 0 0 Z "/>
</clipPath>
<g clip-path="url(#cp1)">
<path transform="matrix(1,0,0,-1,533.0735,65.27942)" d="M 0 0 C -.983 6.467 -5.928 11.386 -11.885 11.386 C -14.853 11.386 -17.569 10.163 -19.671 8.137 C -23.754 14.838 -30.266 19.177 -37.607 19.177 C -44.953 19.177 -51.472 14.836 -55.556 8.13 C -57.623 11.699 -61.228 14.066 -65.333 14.066 C -69.883 14.066 -73.82 11.159 -75.727 6.926 C -77.803 8.618 -80.439 9.633 -83.31 9.633 C -89.103 9.633 -93.931 5.506 -95.121 0 Z " fill="#ffffff"/>
<path transform="matrix(1,0,0,-1,533.0735,65.27942)" stroke-width="1" stroke-linecap="round" stroke-linejoin="round" fill="none" stroke="#69c9c9" d="M 0 0 C -.983 6.467 -5.928 11.386 -11.885 11.386 C -14.853 11.386 -17.569 10.163 -19.671 8.137 C -23.754 14.838 -30.266 19.177 -37.607 19.177 C -44.953 19.177 -51.472 14.836 -55.556 8.13 C -57.623 11.699 -61.228 14.066 -65.333 14.066 C -69.883 14.066 -73.82 11.159 -75.727 6.926 C -77.803 8.618 -80.439 9.633 -83.31 9.633 C -89.103 9.633 -93.931 5.506 -95.121 0 L 0 0 Z "/>
<path transform="matrix(1,0,0,-1,533.6254,1027.5352)" d="M 0 0 C -33.61 276 -222.607 487.362 -450.726 487.362 C -678.845 487.362 -867.843 276 -901.452 0 Z " fill="#76c7a4"/>
<path transform="matrix(1,0,0,-1,533.6254,1027.5352)" stroke-width="3" stroke-linecap="round" stroke-linejoin="round" fill="none" stroke="#76c7a4" d="M 0 0 C -33.61 276 -222.607 487.362 -450.726 487.362 C -678.845 487.362 -867.843 276 -901.452 0 L 0 0 Z "/>
<path transform="matrix(1,0,0,-1,144.5323,545.3908)" d="M 0 0 C -279.537 42.726 -479.892 -215.526 -512.359 -482.144 L -420.023 -482.144 C -389.264 -208.051 -245.734 -.12 0 0 " fill="#61b98b"/>
<path transform="matrix(1,0,0,-1,533.6254,1027.5352)" stroke-width="3" stroke-linecap="round" stroke-linejoin="round" fill="none" stroke="#098b8c" d="M 0 0 C -33.61 276 -222.607 487.362 -450.726 487.362 C -678.845 487.362 -867.843 276 -901.452 0 L 0 0 Z "/>
<path transform="matrix(1,0,0,-1,895.9306,482.7862)" d="M 0 0 C -66.091 25.718 -143.162 42.287 -221.212 42.287 C -475.916 42.287 -692.534 -117.272 -778.866 -343.875 C -794.087 -383.826 -780.883 -628.974 -787.499 -672.586 L -25.757 -672.586 " fill="#b0d46b"/>
<path transform="matrix(1,0,0,-1,801.0862,455.5845)" d="M 0 0 C -374.913 77.926 -663.682 -187.882 -718.346 -484.861 L -684.016 -487.077 C -676.833 -453.209 -573.97 42.581 0 0 " fill="#97ca54"/>
<path transform="matrix(1,0,0,-1,109.5117,845.9323)" stroke-width="3" stroke-linecap="round" stroke-linejoin="round" fill="none" stroke="#006160" d="M 0 0 C 25.785 74.293 65.441 141.969 115.82 199.837 C 225.574 325.908 386.221 405.433 565.206 405.433 C 636.819 405.433 705.496 392.703 769.152 369.354 L 769.947 140.759 L 0 0 Z "/>
<path transform="matrix(1,0,0,-1,213.1945,511.0477)" d="M 0 0 C 1.03 7.289 6.21 12.834 12.449 12.834 C 15.558 12.834 18.403 11.455 20.605 9.172 C 24.882 16.725 31.703 21.616 39.393 21.616 C 47.087 21.616 53.916 16.723 58.194 9.164 C 60.36 13.187 64.136 15.854 68.435 15.854 C 73.202 15.854 77.325 12.578 79.324 7.807 C 81.498 9.714 84.259 10.858 87.267 10.858 C 93.334 10.858 98.391 6.206 99.639 0 Z " fill="#ffffff"/>
<path transform="matrix(1,0,0,-1,213.1945,511.0477)" stroke-width="1" stroke-linecap="round" stroke-linejoin="round" fill="none" stroke="#69c9c9" d="M 0 0 C 1.03 7.289 6.21 12.834 12.449 12.834 C 15.558 12.834 18.403 11.455 20.605 9.172 C 24.882 16.725 31.703 21.616 39.393 21.616 C 47.087 21.616 53.916 16.723 58.194 9.164 C 60.36 13.187 64.136 15.854 68.435 15.854 C 73.202 15.854 77.325 12.578 79.324 7.807 C 81.498 9.714 84.259 10.858 87.267 10.858 C 93.334 10.858 98.391 6.206 99.639 0 L 0 0 Z "/>
<path transform="matrix(1,0,0,-1,737.61,403.22413)" d="M 0 0 C 1.724 10.46 10.395 18.417 20.84 18.417 C 26.045 18.417 30.808 16.438 34.494 13.162 C 41.653 24 53.072 31.019 65.946 31.019 C 78.826 31.019 90.258 23.997 97.419 13.15 C 101.045 18.924 107.366 22.751 114.564 22.751 C 122.543 22.751 129.446 18.049 132.791 11.203 C 136.431 13.94 141.053 15.581 146.088 15.581 C 156.246 15.581 164.712 8.906 166.799 0 Z " fill="#ffffff"/>
<path transform="matrix(1,0,0,-1,737.61,403.22413)" stroke-width="1" stroke-linecap="round" stroke-linejoin="round" fill="none" stroke="#69c9c9" d="M 0 0 C 1.724 10.46 10.395 18.417 20.84 18.417 C 26.045 18.417 30.808 16.438 34.494 13.162 C 41.653 24 53.072 31.019 65.946 31.019 C 78.826 31.019 90.258 23.997 97.419 13.15 C 101.045 18.924 107.366 22.751 114.564 22.751 C 122.543 22.751 129.446 18.049 132.791 11.203 C 136.431 13.94 141.053 15.581 146.088 15.581 C 156.246 15.581 164.712 8.906 166.799 0 L 0 0 Z "/>
<path transform="matrix(1,0,0,-1,878.7,245.3999)" d="M 0 0 C -1.01 6.128 -6.09 10.79 -12.209 10.79 C -15.259 10.79 -18.049 9.63 -20.208 7.711 C -24.403 14.061 -31.093 18.173 -38.635 18.173 C -46.181 18.173 -52.878 14.059 -57.074 7.704 C -59.198 11.087 -62.901 13.329 -67.118 13.329 C -71.792 13.329 -75.837 10.574 -77.796 6.563 C -79.928 8.167 -82.637 9.128 -85.586 9.128 C -91.537 9.128 -96.497 5.218 -97.72 0 Z " fill="#ffffff"/>
<path transform="matrix(1,0,0,-1,878.7,245.3999)" stroke-width="1" stroke-linecap="round" stroke-linejoin="round" fill="none" stroke="#69c9c9" d="M 0 0 C -1.01 6.128 -6.09 10.79 -12.209 10.79 C -15.259 10.79 -18.049 9.63 -20.208 7.711 C -24.403 14.061 -31.093 18.173 -38.635 18.173 C -46.181 18.173 -52.878 14.059 -57.074 7.704 C -59.198 11.087 -62.901 13.329 -67.118 13.329 C -71.792 13.329 -75.837 10.574 -77.796 6.563 C -79.928 8.167 -82.637 9.128 -85.586 9.128 C -91.537 9.128 -96.497 5.218 -97.72 0 L 0 0 Z "/>
<path transform="matrix(1,0,0,-1,671.0283,436.6927)" stroke-width="2" stroke-linecap="round" stroke-linejoin="round" fill="none" stroke="#006160" d="M 0 0 L 0 -14.367 "/>
<path transform="matrix(1,0,0,-1,679.0959,429.2046)" d="M 0 0 C 1.258 -7.972 -2.939 -14.808 -8.58 -14.808 C -14.221 -14.808 -18.073 -7.806 -16.815 .167 C -15.734 7.014 -12.908 18.159 -10.367 25.303 C -9.915 26.575 -9.499 27.894 -8.58 27.894 C -7.737 27.894 -7.275 26.552 -6.792 25.303 C -3.754 17.437 -1.081 6.848 0 0 " fill="#97ca54"/>
<path transform="matrix(1,0,0,-1,666.0766,437.28694)" d="M 0 0 C -2.296 7.711 3.223 28.604 5.337 35.359 C 5.086 35.733 4.797 35.977 4.44 35.977 C 3.52 35.977 3.104 34.657 2.652 33.385 C .111 26.241 -2.715 15.096 -3.795 8.249 C -5.053 .276 -1.201 -6.726 4.44 -6.726 C 4.947 -6.726 7.445 -5.891 7.926 -5.784 C 4.269 -5.772 1.089 -3.659 0 0 " fill="#89ad42"/>
<path transform="matrix(1,0,0,-1,679.4429,429.2046)" stroke-width="1" stroke-linecap="butt" stroke-miterlimit="10" stroke-linejoin="miter" fill="none" stroke="#006160" d="M 0 0 C 1.258 -7.972 -2.939 -14.808 -8.58 -14.808 C -14.221 -14.808 -18.073 -7.806 -16.815 .167 C -15.734 7.014 -12.908 18.159 -10.367 25.303 C -9.915 26.575 -9.499 27.894 -8.58 27.894 C -7.737 27.894 -7.275 26.552 -6.792 25.303 C -3.754 17.437 -1.081 6.848 0 0 Z "/>
<path transform="matrix(1,0,0,-1,64.5927,554.0453)" stroke-width="3" stroke-linecap="round" stroke-linejoin="round" fill="none" stroke="#006160" d="M 0 0 L 0 -17.946 "/>
<path transform="matrix(1,0,0,-1,74.2364,544.69216)" d="M 0 0 C 1.571 -9.958 -3.671 -18.497 -10.717 -18.497 C -17.763 -18.497 -22.574 -9.75 -21.003 .208 C -19.653 8.761 -16.123 22.682 -12.949 31.606 C -12.384 33.195 -11.865 34.843 -10.717 34.843 C -9.664 34.843 -9.087 33.165 -8.484 31.606 C -4.689 21.78 -1.35 8.553 0 0 " fill="#97ca54"/>
<path transform="matrix(1,0,0,-1,57.9742,554.7876)" d="M 0 0 C -2.868 9.632 4.026 35.729 6.667 44.167 C 6.353 44.634 5.992 44.938 5.545 44.938 C 4.397 44.938 3.878 43.29 3.313 41.701 C .139 32.777 -3.391 18.857 -4.741 10.304 C -6.312 .345 -1.501 -8.401 5.545 -8.401 C 6.179 -8.401 9.3 -7.358 9.9 -7.225 C 5.333 -7.21 1.361 -4.571 0 0 " fill="#89ad42"/>
<path transform="matrix(1,0,0,-1,74.2364,544.69216)" stroke-width="1" stroke-linecap="butt" stroke-miterlimit="10" stroke-linejoin="miter" fill="none" stroke="#006160" d="M 0 0 C 1.571 -9.958 -3.671 -18.497 -10.717 -18.497 C -17.763 -18.497 -22.574 -9.75 -21.003 .208 C -19.653 8.761 -16.123 22.682 -12.949 31.606 C -12.384 33.195 -11.865 34.843 -10.717 34.843 C -9.664 34.843 -9.087 33.165 -8.484 31.606 C -4.689 21.78 -1.35 8.553 0 0 Z "/>
<path transform="matrix(1,0,0,-1,96.7213,568.4439)" stroke-width="3" stroke-linecap="round" stroke-linejoin="round" fill="none" stroke="#006160" d="M 0 0 L 0 -21.177 "/>
<path transform="matrix(1,0,0,-1,108.1013,557.4066)" d="M 0 0 C 1.854 -11.751 -4.332 -21.827 -12.646 -21.827 C -20.961 -21.827 -26.639 -11.506 -24.785 .246 C -23.192 10.339 -19.026 26.766 -15.281 37.296 C -14.614 39.171 -14.001 41.116 -12.646 41.116 C -11.404 41.116 -10.723 39.137 -10.012 37.296 C -5.533 25.702 -1.593 10.093 0 0 " fill="#97ca54"/>
<path transform="matrix(1,0,0,-1,88.911,569.3198)" d="M 0 0 C -3.384 11.366 4.751 42.162 7.867 52.119 C 7.497 52.671 7.071 53.029 6.544 53.029 C 5.189 53.029 4.576 51.085 3.909 49.21 C .164 38.679 -4.002 22.252 -5.594 12.159 C -7.449 .407 -1.771 -9.914 6.544 -9.914 C 7.291 -9.914 10.974 -8.683 11.683 -8.526 C 6.293 -8.508 1.606 -5.394 0 0 " fill="#89ad42"/>
<path transform="matrix(1,0,0,-1,108.1013,557.4066)" stroke-width="1" stroke-linecap="butt" stroke-miterlimit="10" stroke-linejoin="miter" fill="none" stroke="#006160" d="M 0 0 C 1.854 -11.751 -4.332 -21.827 -12.646 -21.827 C -20.961 -21.827 -26.639 -11.506 -24.785 .246 C -23.192 10.339 -19.026 26.766 -15.281 37.296 C -14.614 39.171 -14.001 41.116 -12.646 41.116 C -11.404 41.116 -10.723 39.137 -10.012 37.296 C -5.533 25.702 -1.593 10.093 0 0 Z "/>
<path transform="matrix(1,0,0,-1,485.7489,383.902)" d="M 0 0 C -.681 4.718 -4.106 8.307 -8.233 8.307 C -10.289 8.307 -12.17 7.414 -13.626 5.936 C -16.454 10.825 -20.965 13.99 -26.05 13.99 C -31.139 13.99 -35.655 10.823 -38.483 5.931 C -39.916 8.535 -42.413 10.262 -45.256 10.262 C -48.408 10.262 -51.135 8.141 -52.456 5.053 C -53.894 6.287 -55.72 7.028 -57.709 7.028 C -61.721 7.028 -65.066 4.017 -65.89 0 Z " fill="#ffffff"/>
<path transform="matrix(1,0,0,-1,485.7489,383.902)" stroke-width="1" stroke-linecap="round" stroke-linejoin="round" fill="none" stroke="#69c9c9" d="M 0 0 C -.681 4.718 -4.106 8.307 -8.233 8.307 C -10.289 8.307 -12.17 7.414 -13.626 5.936 C -16.454 10.825 -20.965 13.99 -26.05 13.99 C -31.139 13.99 -35.655 10.823 -38.483 5.931 C -39.916 8.535 -42.413 10.262 -45.256 10.262 C -48.408 10.262 -51.135 8.141 -52.456 5.053 C -53.894 6.287 -55.72 7.028 -57.709 7.028 C -61.721 7.028 -65.066 4.017 -65.89 0 L 0 0 Z "/>
<path transform="matrix(1,0,0,-1,489.1066,421.7741)" stroke-width="1" stroke-linecap="round" stroke-linejoin="round" fill="none" stroke="#69c9c9" d="M 0 0 C -.317 1.98 -1.632 3.465 -3.207 3.465 C -4.705 3.465 -5.964 2.122 -6.358 .289 C -6.759 2.107 -8.013 3.435 -9.502 3.435 C -11.077 3.435 -12.392 1.949 -12.71 -.031 "/>
<path transform="matrix(1,0,0,-1,186.1021,530.952)" stroke-width="1" stroke-linecap="round" stroke-linejoin="round" fill="none" stroke="#69c9c9" d="M 0 0 C -.612 2.856 -3.148 4.998 -6.187 4.998 C -9.075 4.998 -11.505 3.061 -12.264 .417 C -13.038 3.038 -15.458 4.953 -18.33 4.953 C -21.369 4.953 -23.905 2.811 -24.517 -.045 "/>
<path transform="matrix(1,0,0,-1,397.3153,526.7708)" stroke-width="3" stroke-linecap="round" stroke-linejoin="round" fill="none" stroke="#006160" d="M 0 0 L 0 -26.081 "/>
<path transform="matrix(1,0,0,-1,411.3306,513.1776)" d="M 0 0 C 2.284 -14.473 -5.335 -26.882 -15.575 -26.882 C -25.815 -26.882 -32.808 -14.17 -30.524 .302 C -28.563 12.733 -23.432 32.964 -18.82 45.933 C -17.998 48.242 -17.244 50.637 -15.575 50.637 C -14.045 50.637 -13.206 48.2 -12.33 45.933 C -6.814 31.653 -1.962 12.431 0 0 " fill="#97ca54"/>
<path transform="matrix(1,0,0,-1,387.6964,527.8495)" d="M 0 0 C -4.168 13.998 5.852 51.925 9.689 64.188 C 9.233 64.867 8.709 65.309 8.059 65.309 C 6.391 65.309 5.636 62.914 4.815 60.605 C .202 47.636 -4.928 27.405 -6.89 14.974 C -9.174 .502 -2.181 -12.21 8.059 -12.21 C 8.98 -12.21 13.515 -10.693 14.388 -10.5 C 7.75 -10.478 1.978 -6.643 0 0 " fill="#89ad42"/>
<path transform="matrix(1,0,0,-1,411.3306,513.1776)" stroke-width="1" stroke-linecap="butt" stroke-miterlimit="10" stroke-linejoin="miter" fill="none" stroke="#006160" d="M 0 0 C 2.284 -14.473 -5.335 -26.882 -15.575 -26.882 C -25.815 -26.882 -32.808 -14.17 -30.524 .302 C -28.563 12.733 -23.432 32.964 -18.82 45.933 C -17.998 48.242 -17.244 50.637 -15.575 50.637 C -14.045 50.637 -13.206 48.2 -12.33 45.933 C -6.814 31.653 -1.962 12.431 0 0 Z "/>
<path transform="matrix(1,0,0,-1,438.0365,509.6011)" stroke-width="3" stroke-linecap="round" stroke-linejoin="round" fill="none" stroke="#006160" d="M 0 0 L 0 -22.101 "/>
<path transform="matrix(1,0,0,-1,449.9132,498.082)" d="M 0 0 C 1.935 -12.264 -4.521 -22.78 -13.198 -22.78 C -21.876 -22.78 -27.802 -12.008 -25.867 .256 C -24.204 10.79 -19.857 27.934 -15.948 38.924 C -15.252 40.881 -14.613 42.911 -13.198 42.911 C -11.902 42.911 -11.191 40.845 -10.449 38.924 C -5.774 26.824 -1.662 10.534 0 0 " fill="#97ca54"/>
<path transform="matrix(1,0,0,-1,429.8853,510.5152)" d="M 0 0 C -3.532 11.862 4.959 44.002 8.211 54.394 C 7.824 54.97 7.38 55.344 6.83 55.344 C 5.415 55.344 4.776 53.315 4.08 51.358 C .171 40.367 -4.176 23.223 -5.839 12.69 C -7.774 .425 -1.848 -10.347 6.83 -10.347 C 7.609 -10.347 11.453 -9.062 12.193 -8.898 C 6.567 -8.879 1.676 -5.629 0 0 " fill="#89ad42"/>
<path transform="matrix(1,0,0,-1,449.9132,498.082)" stroke-width="1" stroke-linecap="butt" stroke-miterlimit="10" stroke-linejoin="miter" fill="none" stroke="#006160" d="M 0 0 C 1.935 -12.264 -4.521 -22.78 -13.198 -22.78 C -21.876 -22.78 -27.802 -12.008 -25.867 .256 C -24.204 10.79 -19.857 27.934 -15.948 38.924 C -15.252 40.881 -14.613 42.911 -13.198 42.911 C -11.902 42.911 -11.191 40.845 -10.449 38.924 C -5.774 26.824 -1.662 10.534 0 0 Z "/>
<path transform="matrix(1,0,0,-1,635.3138,615.0535)" d="M 0 0 L -37.356 0 C -44.93 0 -51.127 6.996 -51.127 15.547 L -51.127 116.748 C -51.127 125.299 -44.93 132.295 -37.356 132.295 L 0 132.295 C 7.574 132.295 14.972 132.295 13.77 116.748 L 13.77 15.547 C 13.77 6.996 7.574 0 0 0 " fill="#eaf6f9"/>
<path transform="matrix(1,0,0,-1,591.3985,484.1153)" d="M 0 0 C -3.314 0 -6.009 -3.044 -6.009 -6.785 L -6.009 -122.797 C -6.009 -126.538 -3.314 -129.581 0 -129.581 L 50.475 -129.581 C 53.788 -129.581 56.484 -126.538 56.484 -122.797 L 56.484 -6.785 C 56.484 -3.044 53.788 0 50.475 0 Z M 50.475 -132.295 L 0 -132.295 C -4.639 -132.295 -8.413 -128.034 -8.413 -122.797 L -8.413 -6.785 C -8.413 -1.547 -4.639 2.714 0 2.714 L 50.475 2.714 C 55.114 2.714 58.888 -1.547 58.888 -6.785 L 58.888 -122.797 C 58.888 -128.034 55.114 -132.295 50.475 -132.295 " fill="#448688"/>
<path transform="matrix(1,0,0,-1,595.8306,482.11073)" d="M 0 0 L -4.407 0 C -8.373 0 -11.618 -3.679 -11.618 -8.177 L -11.618 -126.123 C -11.618 -130.62 -8.373 -134.3 -4.407 -134.3 L 0 -134.3 Z " fill="#c7e8ea"/>
<path transform="matrix(1,0,0,-1,625.5709,518.53897)" d="M 0 0 C 0 0 -.789 2.667 -1.953 3.793 C -2.396 4.222 -2.687 4.581 -3.303 4.584 C -6.066 4.596 -12.798 4.71 -14.926 14.359 C -16.954 23.557 -20.43 25.657 -20.43 25.657 C -20.43 25.657 -10.87 25.802 -3.917 19.863 C 3.036 13.924 .669 8.622 .813 6.304 C .813 6.304 -3.551 14.534 -7.828 16.242 C -7.828 16.242 .246 4.771 0 0 " fill="#8fc84d"/>
<path transform="matrix(1,0,0,-1,606.3768,493.3797)" d="M 0 0 C 1.228 -1.322 3.311 -4.365 4.709 -10.703 C 6.777 -20.085 13.165 -20.113 15.893 -20.124 C 16.627 -20.128 17.03 -20.525 17.42 -20.909 L 17.555 -21.042 C 17.688 -21.172 17.817 -21.319 17.941 -21.478 C 15.967 -16.273 11.06 -9.266 10.997 -9.176 C 10.883 -9.013 10.889 -8.794 11.012 -8.638 C 11.136 -8.481 11.347 -8.425 11.533 -8.499 C 14.888 -9.838 18.203 -14.878 19.652 -17.317 C 19.657 -17.277 19.662 -17.237 19.666 -17.197 C 19.978 -14.453 20.449 -10.306 14.984 -5.639 C 9.689 -1.116 2.774 -.189 0 0 M 19.193 -25.61 C 18.996 -25.61 18.819 -25.48 18.762 -25.287 C 18.754 -25.262 17.992 -22.72 16.928 -21.69 L 16.787 -21.551 C 16.418 -21.188 16.241 -21.027 15.889 -21.026 C 13.199 -21.014 6.052 -20.983 3.828 -10.897 C 1.88 -2.06 -1.438 .093 -1.471 .114 C -1.641 .22 -1.722 .425 -1.669 .618 C -1.615 .811 -1.443 .946 -1.243 .949 C -.852 .956 8.568 1.027 15.57 -4.953 C 21.399 -9.932 20.875 -14.544 20.562 -17.299 C 20.493 -17.906 20.433 -18.431 20.458 -18.827 C 20.471 -19.039 20.335 -19.231 20.13 -19.289 C 19.923 -19.346 19.708 -19.254 19.61 -19.066 C 19.572 -18.996 16.36 -12.993 12.858 -10.315 C 15.094 -13.702 19.841 -21.373 19.644 -25.182 C 19.633 -25.401 19.465 -25.581 19.247 -25.607 C 19.229 -25.609 19.211 -25.61 19.193 -25.61 " fill="#448688"/>
<path transform="matrix(1,0,0,-1,591.3985,484.1153)" d="M 0 0 C -3.314 0 -6.009 -3.044 -6.009 -6.785 L -6.009 -122.797 C -6.009 -126.538 -3.314 -129.581 0 -129.581 L 50.475 -129.581 C 53.788 -129.581 56.484 -126.538 56.484 -122.797 L 56.484 -6.785 C 56.484 -3.044 53.788 0 50.475 0 Z M 50.475 -132.295 L 0 -132.295 C -4.639 -132.295 -8.413 -128.034 -8.413 -122.797 L -8.413 -6.785 C -8.413 -1.547 -4.639 2.714 0 2.714 L 50.475 2.714 C 55.114 2.714 58.888 -1.547 58.888 -6.785 L 58.888 -122.797 C 58.888 -128.034 55.114 -132.295 50.475 -132.295 " fill="#448688"/>
<path transform="matrix(1,0,0,-1,606.4748,476.4635)" d="M 0 0 C 0 0 -.295 1.648 -.918 2.399 C -1.154 2.685 -1.304 2.919 -1.673 2.962 C -3.326 3.152 -7.347 3.666 -7.981 9.58 C -8.586 15.219 -10.527 16.706 -10.527 16.706 C -10.527 16.706 -4.797 16.16 -1.029 12.145 C 2.738 8.131 .971 5.115 .904 3.719 C .904 3.719 -1.163 8.932 -3.609 10.237 C -3.609 10.237 .463 2.839 0 0 " fill="#8fc84d"/>
<path transform="matrix(1,0,0,-1,597.0451,460.3958)" d="M 0 0 C .658 -1.033 1.527 -2.992 1.897 -6.439 C 2.498 -12.047 6.219 -12.475 7.809 -12.658 C 8.115 -12.694 8.328 -12.818 8.496 -12.97 C 7.695 -10.455 6.175 -7.409 5.426 -6.048 C 5.33 -5.873 5.36 -5.656 5.5 -5.514 C 5.64 -5.371 5.857 -5.339 6.033 -5.433 C 7.814 -6.383 9.357 -9.168 10.162 -10.851 C 10.494 -9.277 10.709 -7.04 8.072 -4.231 C 5.456 -1.444 1.823 -.378 0 0 M 9.43 -16.518 C 9.212 -16.518 9.025 -16.362 8.986 -16.148 C 8.909 -15.721 8.612 -14.496 8.165 -13.956 L 8.089 -13.863 C 7.894 -13.622 7.839 -13.569 7.705 -13.554 C 6.057 -13.364 1.679 -12.86 1.001 -6.535 C .431 -1.221 -1.357 .269 -1.375 .283 C -1.531 .408 -1.588 .621 -1.513 .806 C -1.438 .99 -1.255 1.104 -1.054 1.087 C -.813 1.064 4.89 .477 8.729 -3.614 C 11.953 -7.048 11.321 -9.832 10.943 -11.495 C 10.863 -11.845 10.795 -12.148 10.784 -12.371 C 10.774 -12.583 10.617 -12.759 10.408 -12.794 C 10.2 -12.829 9.993 -12.713 9.915 -12.515 C 9.9 -12.479 8.839 -9.832 7.392 -7.915 C 8.579 -10.38 10.192 -14.193 9.875 -16.14 C 9.839 -16.357 9.653 -16.516 9.433 -16.518 Z " fill="#448688"/>
<path transform="matrix(1,0,0,-1,628.4594,476.79273)" d="M 0 0 C 0 0 .108 1.434 .573 2.13 C .75 2.395 .858 2.609 1.169 2.677 C 2.565 2.985 5.955 3.777 5.978 8.885 C 5.999 13.756 7.527 15.196 7.527 15.196 C 7.527 15.196 2.68 14.227 -.187 10.467 C -3.053 6.707 -1.278 4.285 -1.099 3.098 C -1.099 3.098 .209 7.733 2.185 9.063 C 2.185 9.063 -.645 2.385 0 0 " fill="#8fc84d"/>
<path transform="matrix(1,0,0,-1,630.6445,467.27894)" d="M 0 0 C .102 0 .204 -.035 .287 -.103 C .441 -.23 .493 -.443 .415 -.626 C -.09 -1.819 -1.076 -4.429 -1.556 -6.603 C -1.441 -6.512 -1.297 -6.437 -1.113 -6.397 C .214 -6.104 3.32 -5.419 3.342 -.626 C 3.355 2.221 3.878 3.956 4.34 4.934 C 2.783 4.423 -.097 3.194 -2.013 .68 C -3.91 -1.808 -3.654 -3.629 -3.264 -4.922 C -2.703 -3.393 -1.649 -1.017 -.252 -.077 C -.175 -.026 -.087 0 0 0 M -2.186 -9.965 C -2.387 -9.965 -2.567 -9.83 -2.62 -9.632 C -3.023 -8.143 -2.211 -5.22 -1.46 -3.034 C -2.316 -4.672 -2.842 -6.51 -2.85 -6.539 C -2.908 -6.743 -3.101 -6.882 -3.312 -6.866 C -3.524 -6.853 -3.698 -6.694 -3.729 -6.484 C -3.758 -6.3 -3.842 -6.05 -3.939 -5.76 C -4.412 -4.36 -5.204 -2.018 -2.731 1.226 C .206 5.077 5.049 6.084 5.253 6.125 C 5.453 6.163 5.651 6.068 5.742 5.89 C 5.835 5.711 5.797 5.493 5.651 5.355 C 5.641 5.345 4.264 3.924 4.243 -.63 C 4.219 -6.144 .352 -6.997 -.919 -7.277 C -1.005 -7.296 -1.037 -7.329 -1.181 -7.548 L -1.238 -7.634 C -1.564 -8.122 -1.708 -9.181 -1.736 -9.548 C -1.753 -9.767 -1.925 -9.942 -2.143 -9.963 C -2.157 -9.964 -2.172 -9.965 -2.186 -9.965 " fill="#448688"/>
<path transform="matrix(1,0,0,-1,617.3472,460.29753)" d="M 0 0 C 0 0 -.265 1.368 -.008 2.139 C .09 2.432 .136 2.659 .41 2.802 C 1.636 3.446 4.605 5.053 3.322 9.837 C 2.098 14.397 3.16 16.135 3.16 16.135 C 3.16 16.135 -1.127 13.99 -2.847 9.741 C -4.568 5.493 -2.29 3.681 -1.819 2.616 C -1.819 2.616 -1.779 7.286 -.271 9.034 C -.271 9.034 -1.212 2.066 0 0 " fill="#8fc84d"/>
<path transform="matrix(1,0,0,-1,617.0764,450.8127)" d="M 0 0 C .062 0 .126 -.013 .185 -.04 C .367 -.121 .473 -.313 .447 -.511 C .28 -1.747 .026 -4.416 .127 -6.564 C .211 -6.459 .321 -6.362 .471 -6.283 C 1.634 -5.672 4.358 -4.242 3.157 .235 C 2.449 2.876 2.487 4.626 2.665 5.665 C 1.337 4.783 -1.017 2.906 -2.159 .087 C -3.283 -2.688 -2.607 -4.317 -1.921 -5.424 C -1.783 -3.846 -1.401 -1.384 -.341 -.156 C -.253 -.055 -.128 0 0 0 M .271 -9.936 C .115 -9.936 -.035 -9.854 -.118 -9.713 C -.855 -8.456 -.863 -5.638 -.731 -3.425 C -1.075 -5.117 -1.097 -6.844 -1.097 -6.872 C -1.099 -7.085 -1.249 -7.267 -1.457 -7.31 C -1.666 -7.353 -1.874 -7.245 -1.96 -7.051 C -2.033 -6.887 -2.175 -6.675 -2.34 -6.43 C -3.141 -5.239 -4.482 -3.247 -2.994 .426 C -1.23 4.782 3.047 6.962 3.229 7.053 C 3.408 7.142 3.626 7.103 3.762 6.955 C 3.898 6.807 3.92 6.586 3.815 6.415 C 3.809 6.404 2.886 4.726 4.028 .469 C 5.416 -4.705 2.01 -6.494 .89 -7.081 C .819 -7.119 .798 -7.157 .722 -7.393 L .69 -7.489 C .511 -8.026 .646 -9.05 .713 -9.399 C .755 -9.615 .635 -9.829 .43 -9.906 C .378 -9.926 .324 -9.936 .271 -9.936 " fill="#448688"/>
<path transform="matrix(1,0,0,-1,0,623.622)" d="M 1074.396 41.744 L 685.911 41.744 L 685.911 93.34 L 1074.396 93.34 Z " fill="#121617"/>
<path transform="matrix(1,0,0,-1,0,623.622)" d="M 686.512 42.344 L 1073.795 42.344 L 1073.795 92.73801 L 686.512 92.73801 Z M 1074.997 41.143 L 685.30996 41.143 L 685.30996 93.941 L 1074.997 93.941 Z " fill="#448688"/>
<path transform="matrix(1,0,0,-1,1096.7542,559.1747)" d="M 0 0 C -5.46 18.336 -6.561 33.057 -60.945 48.731 C -72.141 51.958 -101.729 62.859 -102.91 63.404 C -109.42 66.409 -112.124 68.111 -125.044 74.821 C -159.597 93.651 -209.831 109.575 -259.551 109.575 C -278.128 109.575 -313.295 108.13 -342.134 104.846 C -357.221 103.129 -370.577 100.908 -378.918 98.127 C -379.856 97.815 -380.443 96.89 -380.342 95.907 C -380.207 94.585 -380.063 92.7 -380.137 91.147 C -380.388 85.889 -380.798 87.307 -418.196 50.234 C -423.553 44.923 -416.984 37.535 -424.355 24.093 C -434.571 5.465 -434.944 -5.531 -435.022 -22.779 C -435.078 -35.143 -430.395 -35.54 -425.604 -35.54 L -419.999 -35.649 C -418 -35.649 -416.929 -33.839 -416.987 -31.841 C -417.162 -25.789 -416.585 -19.732 -415.792 -14.817 C -411.786 10.022 -387.549 16.431 -376.732 16.431 C -354.494 16.431 -332.664 5.615 -330.518 -25.775 C -330.27 -29.398 -330.411 -31.242 -330.26 -36.45 C -330.195 -38.707 -328.309 -40.696 -326.051 -40.696 L -119.001 -41.304 C -116.177 -41.304 -113.727 -39.869 -113.526 -37.051 C -113.075 -30.741 -113.475 -22.788 -112.775 -18.422 C -109.62 1.258 -94.296 15.981 -69.959 16.582 C -42.925 17.249 -26.707 2.497 -24.434 -20.668 C -23.931 -25.795 -24.367 -31.555 -24.376 -34.546 C -24.388 -38.654 -22.562 -40.356 -19.481 -40.356 C -19.481 -40.356 -9.201 -40.098 -5.259 -40.188 C -2.381 -40.253 -.285 -36.96 -.151 -34.748 C -.151 -34.748 1.013 -33.888 -1.416 -22.626 C -2.162 -19.17 1.802 -6.053 0 0 " fill="#eaf6f9"/>
<path transform="matrix(1,0,0,-1,1095.8898,592.9551)" d="M 0 0 C -.002 -.002 -.005 -.004 -.006 -.005 C -.005 -.004 -.002 -.002 0 0 M -.007 -.005 C -.028 -.021 -.046 -.036 -.064 -.051 C -.046 -.035 -.027 -.02 -.007 -.005 M -.067 -.053 C -.068 -.053 -.068 -.054 -.068 -.055 C -.068 -.054 -.068 -.053 -.067 -.053 M -.309 -.361 Z M -375.867 51.414 C -363.386 51.414 -352.535 48.099 -344.487 41.828 C -334.867 34.331 -329.473 22.98 -328.455 8.088 C -328.307 5.928 -328.295 4.39 -328.28 2.442 C -328.269 1.067 -328.256 -.492 -328.195 -2.635 C -328.147 -4.275 -326.742 -5.714 -325.187 -5.714 L -118.134 -6.322 C -116.178 -6.322 -114.025 -5.498 -113.86 -3.185 C -113.668 -.493 -113.632 2.516 -113.598 5.425 C -113.552 9.312 -113.508 12.983 -113.097 15.548 C -109.629 37.179 -92.78 50.98 -69.124 51.564 C -42.262 52.226 -24.793 37.896 -22.373 13.23 C -21.997 9.398 -22.136 5.198 -22.238 2.13 C -22.275 .995 -22.308 .015 -22.31 -.769 C -22.315 -2.53 -21.953 -3.788 -21.234 -4.509 C -20.654 -5.091 -19.798 -5.374 -18.616 -5.374 C -18.226 -5.363 -8.297 -5.113 -4.367 -5.206 C -4.349 -5.206 -4.331 -5.207 -4.313 -5.207 C -2.275 -5.207 -.59 -2.607 -.486 -.894 C -.473 -.684 -.406 -.484 -.294 -.312 C -.207 .029 .149 2.205 -1.727 10.901 C -2.077 12.525 -1.61 15.478 -1.018 19.216 C -.25 24.068 .705 30.105 -.287 33.438 L -.287 33.437 C -.61 34.523 -.918 35.595 -1.223 36.656 C -6.057 53.492 -9.875 66.791 -60.413 81.357 C -71.488 84.548 -101.177 95.46 -102.549 96.093 C -106.69 98.004 -109.257 99.369 -113.917 101.845 C -116.617 103.279 -119.976 105.064 -124.733 107.535 C -164.521 129.216 -214.59 142.154 -258.687 142.154 C -279.053 142.154 -313.913 140.532 -341.133 137.433 C -357.807 135.534 -370.101 133.292 -377.674 130.767 C -378.076 130.633 -378.326 130.24 -378.282 129.81 C -378.143 128.458 -377.995 126.504 -378.072 124.87 C -378.279 120.538 -378.57 120.255 -393.799 105.425 C -399.174 100.192 -406.536 93.023 -416.485 83.16 C -418.577 81.087 -418.534 78.681 -418.47 75.039 C -418.391 70.502 -418.291 64.856 -422.437 57.296 C -432.35 39.22 -432.877 28.459 -432.955 10.996 C -432.978 5.894 -432.197 2.617 -430.565 .978 C -429.148 -.445 -427.173 -.558 -424.739 -.558 L -419.111 -.667 C -418.669 -.667 -418.297 -.516 -417.996 -.207 C -417.55 .253 -417.299 1.042 -417.324 1.904 C -417.521 8.739 -416.775 15.058 -416.114 19.155 C -411.846 45.619 -385.615 51.414 -375.867 51.414 M -118.137 -8.726 L -325.19 -8.117 C -328.035 -8.117 -330.513 -5.638 -330.597 -2.704 C -330.66 -.536 -330.672 1.036 -330.683 2.423 C -330.698 4.33 -330.71 5.836 -330.852 7.924 C -333.388 45.007 -363.177 49.01 -375.867 49.01 C -385.045 49.01 -409.741 43.578 -413.741 18.773 C -414.385 14.778 -415.113 8.621 -414.921 1.974 C -414.877 .453 -415.37 -.952 -416.272 -1.881 C -417.027 -2.659 -418.017 -3.07 -419.134 -3.07 L -424.763 -2.962 L -424.768 -2.962 C -427.533 -2.962 -430.207 -2.789 -432.268 -.718 C -434.403 1.427 -435.386 5.152 -435.359 11.007 C -435.279 28.86 -434.737 39.865 -424.545 58.452 C -420.706 65.451 -420.799 70.744 -420.874 74.997 C -420.94 78.793 -420.998 82.072 -418.178 84.867 C -408.221 94.738 -400.855 101.911 -395.476 107.147 C -380.635 121.599 -380.631 121.662 -380.474 124.984 C -380.403 126.469 -380.543 128.295 -380.673 129.565 C -380.832 131.123 -379.911 132.555 -378.434 133.048 C -370.703 135.625 -358.245 137.904 -341.405 139.821 C -314.095 142.931 -279.121 144.557 -258.687 144.557 C -214.206 144.557 -163.708 131.511 -123.604 109.657 C -118.858 107.192 -115.493 105.404 -112.789 103.968 C -108.167 101.511 -105.621 100.158 -101.542 98.276 C -100.693 97.889 -71.105 86.94 -59.748 83.666 C -7.931 68.732 -3.752 54.175 1.087 37.319 C 1.39 36.266 1.695 35.201 2.016 34.123 C 3.164 30.268 2.204 24.197 1.356 18.841 C .87 15.769 .367 12.592 .623 11.408 C 2.553 2.461 2.326 -.359 1.883 -1.364 C 1.551 -4.043 -.891 -7.611 -4.31 -7.611 C -4.347 -7.611 -4.384 -7.61 -4.421 -7.609 C -8.291 -7.524 -18.484 -7.775 -18.586 -7.777 C -20.443 -7.777 -21.897 -7.249 -22.936 -6.206 C -24.123 -5.017 -24.721 -3.185 -24.714 -.762 C -24.711 .058 -24.678 1.055 -24.64 2.21 C -24.541 5.211 -24.405 9.32 -24.765 12.995 C -27.049 36.269 -43.627 49.801 -69.065 49.161 C -91.488 48.607 -107.451 35.582 -110.724 15.168 C -111.107 12.777 -111.15 9.192 -111.194 5.397 C -111.229 2.452 -111.265 -.593 -111.463 -3.356 C -111.692 -6.568 -114.374 -8.726 -118.137 -8.726 " fill="#448688"/>
<path transform="matrix(1,0,0,-1,692.1797,516.3025)" d="M 0 0 C 5.208 10.015 26.24 22.835 35.054 32.45 C 40.249 38.118 42.171 47.789 40.76 58.916 C 32.08 57.573 31.04 57.05 25.656 55.255 C 24.719 54.943 24.132 54.018 24.232 53.035 C 24.368 51.713 24.511 49.828 24.437 48.274 C 24.187 43.016 23.776 44.435 -13.622 7.361 C -18.978 2.051 -12.41 -5.337 -19.781 -18.779 C -29.997 -37.408 -30.37 -48.403 -30.448 -65.651 C -30.503 -78.015 -25.82 -78.413 -21.029 -78.413 L -15.424 -78.521 C -14.023 -41.495 -14.329 -37.312 -2.804 -23.036 C 3.034 -15.803 -1.49 -2.866 0 0 " fill="#d0eced"/>
<path transform="matrix(1,0,0,-1,699.4669,517.0684)" d="M 0 0 C -7.265 -3.1 -14.615 -2.19 -16.416 2.031 C -18.217 6.253 -13.788 12.188 -6.522 15.288 C .743 18.387 8.093 17.478 9.894 13.256 C 11.695 9.035 7.265 3.1 0 0 " fill="#fcb133"/>
<path transform="matrix(1,0,0,-1,701.3355,500.2398)" d="M 0 0 C -2.606 0 -5.479 -.625 -8.273 -1.817 C -15.374 -4.847 -19.741 -10.617 -18.008 -14.679 C -17.181 -16.618 -15.079 -17.89 -12.089 -18.26 C -9.04 -18.638 -5.452 -18.031 -1.986 -16.552 C 5.115 -13.523 9.482 -7.753 7.749 -3.69 C 6.921 -1.751 4.819 -.479 1.829 -.109 C 1.238 -.036 .627 0 0 0 M -10.263 -18.97 C -10.914 -18.97 -11.548 -18.932 -12.163 -18.856 C -15.374 -18.459 -17.646 -17.06 -18.561 -14.915 C -20.424 -10.548 -15.915 -4.424 -8.509 -1.264 C -4.946 .255 -1.248 .878 1.903 .487 C 5.114 .09 7.387 -1.31 8.302 -3.454 C 10.165 -7.822 5.655 -13.945 -1.751 -17.105 C -4.618 -18.329 -7.574 -18.97 -10.263 -18.97 " fill="#448688"/>
<path transform="matrix(1,0,0,-1,985.6871,506.6531)" d="M 0 0 C 2.234 -.146 3.342 2.678 1.591 4.073 C -27.504 27.253 -91.357 50.625 -146.681 50.043 C -225.979 49.209 -221.149 46.301 -235.878 19.985 C -237.02 17.945 -235.65 15.408 -233.317 15.256 Z " fill="#b3e0e0"/>
<path transform="matrix(1,0,0,-1,840.9771,457.802)" d="M 0 0 C -.656 0 -1.308 -.003 -1.958 -.01 C -74.594 -.774 -75.776 -2.963 -87.08 -23.896 C -88.028 -25.653 -89.009 -27.469 -90.12 -29.453 C -90.459 -30.06 -90.464 -30.759 -90.132 -31.37 C -89.802 -31.977 -89.218 -32.351 -88.528 -32.396 L 144.789 -47.652 C 145.523 -47.692 145.813 -47.128 145.882 -46.951 C 145.95 -46.777 146.124 -46.174 145.552 -45.718 C 130.947 -34.082 107.647 -22.53 81.627 -14.025 C 53.89 -4.958 24.994 0 0 0 M 144.876 -50.059 C 144.795 -50.059 144.714 -50.056 144.631 -50.05 L -88.685 -34.795 C -90.192 -34.696 -91.523 -33.845 -92.244 -32.518 C -92.967 -31.186 -92.957 -29.602 -92.217 -28.279 C -91.116 -26.311 -90.139 -24.503 -89.195 -22.754 C -77.534 -1.16 -76.037 1.614 -1.984 2.393 C -1.294 2.4 -.601 2.404 .091 2.404 C 55.8 2.404 118.3 -20.933 147.049 -43.838 C 148.263 -44.805 148.685 -46.367 148.124 -47.818 C 147.59 -49.199 146.331 -50.058 144.876 -50.059 " fill="#448688"/>
<path transform="matrix(1,0,0,-1,694.3043,493.4431)" d="M 0 0 L 35.887 18.151 C 38.008 19.27 38.187 22.239 36.216 23.605 L 22.568 31.718 L 22.964 25.132 C 22.893 23.788 22.363 22.509 21.461 21.509 Z " fill="#8ccdcc"/>
<path transform="matrix(1,0,0,-1,718.2084,463.9172)" d="M 0 0 L .259 -4.322 C .262 -4.367 .262 -4.412 .26 -4.457 C .175 -6.071 -.468 -7.621 -1.55 -8.821 C -1.564 -8.837 -1.578 -8.851 -1.592 -8.866 L -17.764 -25.073 L 11.441 -10.302 C 12.053 -9.979 12.439 -9.38 12.482 -8.668 C 12.524 -7.968 12.224 -7.337 11.658 -6.93 Z M -23.903 -30.728 C -24.278 -30.728 -24.644 -30.552 -24.877 -30.231 C -25.223 -29.754 -25.171 -29.095 -24.755 -28.677 L -3.317 -7.191 C -2.628 -6.417 -2.213 -5.427 -2.144 -4.394 L -2.535 2.12 C -2.562 2.564 -2.341 2.987 -1.961 3.219 C -1.581 3.45 -1.104 3.452 -.721 3.225 L 12.926 -4.888 C 12.95 -4.902 12.974 -4.917 12.997 -4.933 C 14.27 -5.816 14.974 -7.266 14.881 -8.812 C 14.788 -10.359 13.915 -11.714 12.544 -12.438 L -23.362 -30.598 C -23.534 -30.686 -23.72 -30.728 -23.903 -30.728 " fill="#448688"/>
<path transform="matrix(1,0,0,-1,758.2419,491.7813)" d="M 0 0 L 9.711 14.881 C 13.004 19.927 18.445 23.159 24.451 23.632 C 41.009 24.936 81.839 26.443 95.737 25.706 C 131.205 23.827 158.867 18.694 177.914 13.538 C 196.899 8.397 227.561 -9.684 227.762 -9.802 C 198.111 13.047 135.296 35.744 80.764 35.171 C 1.466 34.337 6.297 31.429 -8.433 5.113 C -9.575 3.073 -8.205 .536 -5.872 .384 Z " fill="#8ccdcc"/>
<path transform="matrix(1,0,0,-1,840.9771,457.802)" d="M 0 0 C -.656 0 -1.308 -.003 -1.958 -.01 C -74.594 -.774 -75.776 -2.963 -87.08 -23.896 C -88.028 -25.653 -89.009 -27.469 -90.12 -29.453 C -90.459 -30.06 -90.464 -30.759 -90.132 -31.37 C -89.802 -31.977 -89.218 -32.351 -88.528 -32.396 L 144.789 -47.652 C 145.523 -47.692 145.813 -47.128 145.882 -46.951 C 145.95 -46.777 146.124 -46.174 145.552 -45.718 C 130.947 -34.082 107.647 -22.53 81.627 -14.025 C 53.89 -4.958 24.994 0 0 0 M 144.876 -50.059 C 144.795 -50.059 144.714 -50.056 144.631 -50.05 L -88.685 -34.795 C -90.192 -34.696 -91.523 -33.845 -92.244 -32.518 C -92.967 -31.186 -92.957 -29.602 -92.217 -28.279 C -91.116 -26.311 -90.139 -24.503 -89.195 -22.754 C -77.534 -1.16 -76.037 1.614 -1.984 2.393 C -1.294 2.4 -.601 2.404 .091 2.404 C 55.8 2.404 118.3 -20.933 147.049 -43.838 C 148.263 -44.805 148.685 -46.367 148.124 -47.818 C 147.59 -49.199 146.331 -50.058 144.876 -50.059 " fill="#448688"/>
<path transform="matrix(1,0,0,-1,861.8193,578.4151)" d="M 0 0 L .28 -2.504 " fill="#ffffff"/>
<path transform="matrix(1,0,0,-1,862.097,582.12026)" d="M 0 0 C -.604 0 -1.124 .454 -1.192 1.069 L -1.472 3.572 C -1.546 4.232 -1.07 4.826 -.411 4.9 C .247 4.975 .843 4.498 .917 3.839 L 1.196 1.335 C 1.27 .675 .795 .081 .135 .008 C .09 .002 .045 0 0 0 " fill="#448688"/>
<path transform="matrix(1,0,0,-1,858.742,554.1383)" d="M 0 0 L 1.952 -17.468 " fill="#ffffff"/>
<path transform="matrix(1,0,0,-1,860.6921,572.80886)" d="M 0 0 C -.604 0 -1.124 .454 -1.192 1.069 L -3.144 18.537 C -3.218 19.197 -2.743 19.791 -2.083 19.865 C -1.428 19.942 -.83 19.463 -.756 18.804 L 1.196 1.335 C 1.27 .675 .795 .081 .135 .008 C .09 .002 .045 0 0 0 " fill="#448688"/>
<path transform="matrix(1,0,0,-1,843.8361,449.6941)" d="M 0 0 L 13.65 -97.393 " fill="#ffffff"/>
<path transform="matrix(1,0,0,-1,857.4838,548.2887)" d="M 0 0 C -.59 0 -1.104 .434 -1.188 1.035 L -14.838 98.428 C -14.93 99.085 -14.472 99.693 -13.814 99.785 C -13.164 99.878 -12.55 99.419 -12.458 98.761 L 1.192 1.369 C 1.284 .711 .826 .104 .168 .012 C .112 .004 .056 0 0 0 " fill="#448688"/>
<path transform="matrix(1,0,0,-1,887.1581,521.4658)" d="M 0 0 L -23.107 2.722 C -24.065 2.835 -24.758 3.712 -24.645 4.671 L -24.523 5.705 C -24.41 6.664 -23.533 7.356 -22.574 7.244 L .533 4.521 C 1.492 4.408 2.184 3.531 2.071 2.572 L 1.949 1.538 C 1.836 .579 .959 -.113 0 0 " fill="#d0eced"/>
<path transform="matrix(1,0,0,-1,887.1639,521.01296)" d="M 0 0 C .738 -.085 1.414 .444 1.501 1.185 L 1.612 2.125 C 1.654 2.482 1.553 2.835 1.329 3.12 C 1.104 3.404 .784 3.584 .427 3.626 L -22.586 6.338 C -23.323 6.421 -23.999 5.893 -24.086 5.153 L -24.197 4.212 C -24.24 3.856 -24.139 3.503 -23.914 3.218 C -23.69 2.933 -23.369 2.753 -23.012 2.711 Z M .16 -.911 C .072 -.911 -.016 -.905 -.106 -.895 L -23.118 1.816 C -24.352 1.962 -25.238 3.084 -25.093 4.318 L -24.982 5.258 C -24.836 6.493 -23.712 7.381 -22.48 7.233 L .533 4.521 C 1.129 4.451 1.663 4.152 2.036 3.678 C 2.41 3.204 2.577 2.616 2.507 2.02 L 2.397 1.079 C 2.262 -.065 1.285 -.911 .16 -.911 " fill="#448688"/>
<path transform="matrix(1,0,0,-1,674.4625,583.21646)" d="M 0 0 L -9.371 0 C -10.337 0 -11.127 .79 -11.127 1.756 L -11.127 2.797 C -11.127 3.763 -10.337 4.553 -9.371 4.553 L 0 4.553 C .966 4.553 1.756 3.763 1.756 2.797 L 1.756 1.756 C 1.756 .79 .966 0 0 0 " fill="#f8951d"/>
<path transform="matrix(1,0,0,-1,760.0153,587.97976)" d="M 0 0 C 0 -21.096 -17.102 -38.198 -38.198 -38.198 C -59.294 -38.198 -76.396 -21.096 -76.396 0 C -76.396 21.096 -59.294 38.198 -38.198 38.198 C -17.102 38.198 0 21.096 0 0 " fill="#343839"/>
<path transform="matrix(1,0,0,-1,721.817,550.9835)" d="M 0 0 C -20.4 0 -36.996 -16.596 -36.996 -36.996 C -36.996 -57.396 -20.4 -73.993 0 -73.993 C 20.4 -73.993 36.996 -57.396 36.996 -36.996 C 36.996 -16.596 20.4 0 0 0 M 0 -76.396 C -21.726 -76.396 -39.4 -58.722 -39.4 -36.996 C -39.4 -15.271 -21.726 2.404 0 2.404 C 21.725 2.404 39.4 -15.271 39.4 -36.996 C 39.4 -58.722 21.725 -76.396 0 -76.396 " fill="#448688"/>
<path transform="matrix(1,0,0,-1,749.1083,588.1592)" d="M 0 0 C 0 -14.939 -12.11 -27.049 -27.049 -27.049 C -41.988 -27.049 -54.099 -14.939 -54.099 0 C -54.099 14.939 -41.988 27.049 -27.049 27.049 C -12.11 27.049 0 14.939 0 0 " fill="#e7e7e6"/>
<path transform="matrix(1,0,0,-1,722.0587,562.3113)" d="M 0 0 C -14.252 0 -25.847 -11.595 -25.847 -25.848 C -25.847 -40.1 -14.252 -51.696 0 -51.696 C 14.253 -51.696 25.848 -40.1 25.848 -25.848 C 25.848 -11.595 14.253 0 0 0 M 0 -54.099 C -15.578 -54.099 -28.251 -41.426 -28.251 -25.848 C -28.251 -10.27 -15.578 2.404 0 2.404 C 15.578 2.404 28.252 -10.27 28.252 -25.848 C 28.252 -41.426 15.578 -54.099 0 -54.099 " fill="#448688"/>
<path transform="matrix(1,0,0,-1,748.5305,586.6013)" d="M 0 0 L -.949 5.645 L -18.646 2.671 C -20.58 2.346 -22.263 4.013 -21.957 5.95 L -19.208 23.323 L -24.861 24.217 L -27.607 6.861 C -27.919 4.892 -30.092 3.832 -31.835 4.799 L -47.817 13.664 L -50.593 8.659 L -34.514 -.26 C -32.813 -1.204 -32.523 -3.53 -33.941 -4.862 L -47.105 -17.23 L -43.186 -21.402 L -29.953 -8.969 C -28.528 -7.631 -26.212 -8.076 -25.386 -9.848 L -17.536 -26.684 L -12.348 -24.266 L -20.349 -7.106 C -21.151 -5.387 -20.094 -3.377 -18.223 -3.062 Z " fill="#205e5e"/>
<path transform="matrix(1,0,0,-1,722.0587,562.3113)" d="M 0 0 C -14.252 0 -25.847 -11.595 -25.847 -25.848 C -25.847 -40.1 -14.252 -51.696 0 -51.696 C 14.253 -51.696 25.848 -40.1 25.848 -25.848 C 25.848 -11.595 14.253 0 0 0 M 0 -54.099 C -15.578 -54.099 -28.251 -41.426 -28.251 -25.848 C -28.251 -10.27 -15.578 2.404 0 2.404 C 15.578 2.404 28.252 -10.27 28.252 -25.848 C 28.252 -41.426 15.578 -54.099 0 -54.099 " fill="#448688"/>
<path transform="matrix(1,0,0,-1,982.7278,590.9176)" d="M 0 0 C -.015 0 -.03 0 -.045 .001 L -189.889 6.994 C -193.966 7.145 -197.784 9.236 -200.105 12.589 L -247.099 80.483 C -250.601 85.544 -250.572 92.323 -247.027 97.353 L -231.343 119.604 C -229.62 122.049 -228.751 125.04 -228.896 128.027 L -229.308 136.531 C -229.339 137.194 -228.828 137.758 -228.165 137.79 C -227.511 137.833 -226.939 137.311 -226.906 136.647 L -226.495 128.143 C -226.325 124.624 -227.349 121.099 -229.379 118.219 L -245.062 95.968 C -248.029 91.759 -248.053 86.086 -245.122 81.851 L -198.128 13.957 C -196.237 11.224 -193.123 9.519 -189.801 9.397 L .043 2.403 C .707 2.378 1.225 1.821 1.201 1.158 C 1.177 .509 .644 0 0 0 " fill="#448688"/>
<path transform="matrix(1,0,0,-1,1095.8898,592.9551)" d="M 0 0 C -.002 -.002 -.005 -.004 -.006 -.005 C -.005 -.004 -.002 -.002 0 0 M -.007 -.005 C -.028 -.021 -.046 -.036 -.064 -.051 C -.046 -.035 -.027 -.02 -.007 -.005 M -.067 -.053 C -.068 -.053 -.068 -.054 -.068 -.055 C -.068 -.054 -.068 -.053 -.067 -.053 M -.309 -.361 Z M -375.867 51.414 C -363.386 51.414 -352.535 48.099 -344.487 41.828 C -334.867 34.331 -329.473 22.98 -328.455 8.088 C -328.307 5.928 -328.295 4.39 -328.28 2.442 C -328.269 1.067 -328.256 -.492 -328.195 -2.635 C -328.147 -4.275 -326.742 -5.714 -325.187 -5.714 L -118.134 -6.322 C -116.178 -6.322 -114.025 -5.498 -113.86 -3.185 C -113.668 -.493 -113.632 2.516 -113.598 5.425 C -113.552 9.312 -113.508 12.983 -113.097 15.548 C -109.629 37.179 -92.78 50.98 -69.124 51.564 C -42.262 52.226 -24.793 37.896 -22.373 13.23 C -21.997 9.398 -22.136 5.198 -22.238 2.13 C -22.275 .995 -22.308 .015 -22.31 -.769 C -22.315 -2.53 -21.953 -3.788 -21.234 -4.509 C -20.654 -5.091 -19.798 -5.374 -18.616 -5.374 C -18.226 -5.363 -8.297 -5.113 -4.367 -5.206 C -4.349 -5.206 -4.331 -5.207 -4.313 -5.207 C -2.275 -5.207 -.59 -2.607 -.486 -.894 C -.473 -.684 -.406 -.484 -.294 -.312 C -.207 .029 .149 2.205 -1.727 10.901 C -2.077 12.525 -1.61 15.478 -1.018 19.216 C -.25 24.068 .705 30.105 -.287 33.438 L -.287 33.437 C -.61 34.523 -.918 35.595 -1.223 36.656 C -6.057 53.492 -9.875 66.791 -60.413 81.357 C -71.488 84.548 -101.177 95.46 -102.549 96.093 C -106.69 98.004 -109.257 99.369 -113.917 101.845 C -116.617 103.279 -119.976 105.064 -124.733 107.535 C -164.521 129.216 -214.59 142.154 -258.687 142.154 C -279.053 142.154 -313.913 140.532 -341.133 137.433 C -357.807 135.534 -370.101 133.292 -377.674 130.767 C -378.076 130.633 -378.326 130.24 -378.282 129.81 C -378.143 128.458 -377.995 126.504 -378.072 124.87 C -378.279 120.538 -378.57 120.255 -393.799 105.425 C -399.174 100.192 -406.536 93.023 -416.485 83.16 C -418.577 81.087 -418.534 78.681 -418.47 75.039 C -418.391 70.502 -418.291 64.856 -422.437 57.296 C -432.35 39.22 -432.877 28.459 -432.955 10.996 C -432.978 5.894 -432.197 2.617 -430.565 .978 C -429.148 -.445 -427.173 -.558 -424.739 -.558 L -419.111 -.667 C -418.669 -.667 -418.297 -.516 -417.996 -.207 C -417.55 .253 -417.299 1.042 -417.324 1.904 C -417.521 8.739 -416.775 15.058 -416.114 19.155 C -411.846 45.619 -385.615 51.414 -375.867 51.414 M -118.137 -8.726 L -325.19 -8.117 C -328.035 -8.117 -330.513 -5.638 -330.597 -2.704 C -330.66 -.536 -330.672 1.036 -330.683 2.423 C -330.698 4.33 -330.71 5.836 -330.852 7.924 C -333.388 45.007 -363.177 49.01 -375.867 49.01 C -385.045 49.01 -409.741 43.578 -413.741 18.773 C -414.385 14.778 -415.113 8.621 -414.921 1.974 C -414.877 .453 -415.37 -.952 -416.272 -1.881 C -417.027 -2.659 -418.017 -3.07 -419.134 -3.07 L -424.763 -2.962 L -424.768 -2.962 C -427.533 -2.962 -430.207 -2.789 -432.268 -.718 C -434.403 1.427 -435.386 5.152 -435.359 11.007 C -435.279 28.86 -434.737 39.865 -424.545 58.452 C -420.706 65.451 -420.799 70.744 -420.874 74.997 C -420.94 78.793 -420.998 82.072 -418.178 84.867 C -408.221 94.738 -400.855 101.911 -395.476 107.147 C -380.635 121.599 -380.631 121.662 -380.474 124.984 C -380.403 126.469 -380.543 128.295 -380.673 129.565 C -380.832 131.123 -379.911 132.555 -378.434 133.048 C -370.703 135.625 -358.245 137.904 -341.405 139.821 C -314.095 142.931 -279.121 144.557 -258.687 144.557 C -214.206 144.557 -163.708 131.511 -123.604 109.657 C -118.858 107.192 -115.493 105.404 -112.789 103.968 C -108.167 101.511 -105.621 100.158 -101.542 98.276 C -100.693 97.889 -71.105 86.94 -59.748 83.666 C -7.931 68.732 -3.752 54.175 1.087 37.319 C 1.39 36.266 1.695 35.201 2.016 34.123 C 3.164 30.268 2.204 24.197 1.356 18.841 C .87 15.769 .367 12.592 .623 11.408 C 2.553 2.461 2.326 -.359 1.883 -1.364 C 1.551 -4.043 -.891 -7.611 -4.31 -7.611 C -4.347 -7.611 -4.384 -7.61 -4.421 -7.609 C -8.291 -7.524 -18.484 -7.775 -18.586 -7.777 C -20.443 -7.777 -21.897 -7.249 -22.936 -6.206 C -24.123 -5.017 -24.721 -3.185 -24.714 -.762 C -24.711 .058 -24.678 1.055 -24.64 2.21 C -24.541 5.211 -24.405 9.32 -24.765 12.995 C -27.049 36.269 -43.627 49.801 -69.065 49.161 C -91.488 48.607 -107.451 35.582 -110.724 15.168 C -111.107 12.777 -111.15 9.192 -111.194 5.397 C -111.229 2.452 -111.265 -.593 -111.463 -3.356 C -111.692 -6.568 -114.374 -8.726 -118.137 -8.726 " fill="#448688"/>
<path transform="matrix(1,0,0,-1,619.8088,533.8982)" d="M 0 0 L -5.662 0 C -8.126 0 -10.142 2.016 -10.142 4.48 L -10.142 7.138 C -10.142 9.602 -8.126 11.618 -5.662 11.618 L 0 11.618 C 2.464 11.618 4.48 9.602 4.48 7.138 L 4.48 4.48 C 4.48 2.016 2.464 0 0 0 " fill="#205e5e"/>
<path transform="matrix(1,0,0,-1,615.4755,522.731)" d="M 0 0 C -2.955 0 -5.358 -2.404 -5.358 -5.358 C -5.358 -8.313 -2.955 -10.716 0 -10.716 L 3.005 -10.716 C 5.959 -10.716 8.363 -8.313 8.363 -5.358 C 8.363 -2.404 5.959 0 3.005 0 Z M 3.005 -11.618 L 0 -11.618 C -3.452 -11.618 -6.26 -8.81 -6.26 -5.358 C -6.26 -1.907 -3.452 .901 0 .901 L 3.005 .901 C 6.456 .901 9.264 -1.907 9.264 -5.358 C 9.264 -8.81 6.456 -11.618 3.005 -11.618 " fill="#448688"/>
<path transform="matrix(1,0,0,-1,716.5251,532.5936)" d="M 0 0 L -5.292 0 C -7.756 0 -9.772 2.016 -9.772 4.48 L -9.772 7.138 C -9.772 9.602 -7.756 11.618 -5.292 11.618 L 0 11.618 C 2.464 11.618 4.48 9.602 4.48 7.138 L 4.48 4.48 C 4.48 2.016 2.464 0 0 0 " fill="#205e5e"/>
<path transform="matrix(1,0,0,-1,712.5618,521.4262)" d="M 0 0 C -2.955 0 -5.358 -2.404 -5.358 -5.358 C -5.358 -8.313 -2.955 -10.717 0 -10.717 L 2.634 -10.717 C 5.589 -10.717 7.993 -8.313 7.993 -5.358 C 7.993 -2.404 5.589 0 2.634 0 Z M 2.634 -11.618 L 0 -11.618 C -3.452 -11.618 -6.26 -8.81 -6.26 -5.358 C -6.26 -1.907 -3.452 .901 0 .901 L 2.634 .901 C 6.086 .901 8.894 -1.907 8.894 -5.358 C 8.894 -8.81 6.086 -11.618 2.634 -11.618 " fill="#448688"/>
<path transform="matrix(1,0,0,-1,665.3568,587.7482)" d="M 0 0 C -27.396 0 -49.684 26.688 -49.684 59.492 L -49.68 59.841 C -49.677 60.502 -49.14 61.036 -48.479 61.036 L -48.472 61.036 C -47.809 61.033 -47.273 60.492 -47.277 59.828 L -47.28 59.492 C -47.28 28.014 -26.07 2.404 0 2.404 C 26.07 2.404 47.281 28.014 47.281 59.492 L 47.277 59.828 C 47.273 60.492 47.808 61.033 48.473 61.036 L 48.478 61.036 C 49.139 61.036 49.677 60.502 49.68 59.841 L 49.684 59.492 C 49.684 26.688 27.396 0 0 0 " fill="#448688"/>
<path transform="matrix(1,0,0,-1,707.4092,443.9792)" stroke-width="2" stroke-linecap="round" stroke-linejoin="round" fill="none" stroke="#006160" d="M 0 0 L 0 -17.039 "/>
<path transform="matrix(1,0,0,-1,716.9773,435.0985)" d="M 0 0 C 1.492 -9.455 -3.485 -17.563 -10.175 -17.563 C -16.866 -17.563 -21.434 -9.258 -19.942 .198 C -18.661 8.319 -15.309 21.536 -12.295 30.009 C -11.759 31.518 -11.266 33.082 -10.175 33.082 C -9.176 33.082 -8.628 31.49 -8.056 30.009 C -4.452 20.68 -1.281 8.121 0 0 " fill="#97ca54"/>
<path transform="matrix(1,0,0,-1,701.5366,444.68403)" d="M 0 0 C -2.723 9.145 3.823 33.924 6.33 41.936 C 6.032 42.379 5.69 42.668 5.265 42.668 C 4.175 42.668 3.682 41.103 3.145 39.595 C .132 31.122 -3.22 17.904 -4.501 9.783 C -5.993 .328 -1.425 -7.977 5.265 -7.977 C 5.867 -7.977 8.83 -6.986 9.4 -6.86 C 5.063 -6.846 1.292 -4.34 0 0 " fill="#89ad42"/>
<path transform="matrix(1,0,0,-1,717.3889,435.0985)" stroke-width="1" stroke-linecap="butt" stroke-miterlimit="10" stroke-linejoin="miter" fill="none" stroke="#006160" d="M 0 0 C 1.492 -9.455 -3.485 -17.563 -10.175 -17.563 C -16.866 -17.563 -21.434 -9.258 -19.942 .198 C -18.661 8.319 -15.309 21.536 -12.295 30.009 C -11.759 31.518 -11.266 33.082 -10.175 33.082 C -9.176 33.082 -8.628 31.49 -8.056 30.009 C -4.452 20.68 -1.281 8.121 0 0 Z "/>
<path transform="matrix(1,0,0,-1,656.4865,437.74543)" stroke-width="2" stroke-linecap="round" stroke-linejoin="round" fill="none" stroke="#006160" d="M 0 0 L 0 -19.436 "/>
<path transform="matrix(1,0,0,-1,667.4002,427.6158)" d="M 0 0 C 1.702 -10.785 -3.975 -20.032 -11.607 -20.032 C -19.238 -20.032 -24.448 -10.56 -22.747 .225 C -21.285 9.489 -17.462 24.565 -14.025 34.229 C -13.413 35.95 -12.85 37.735 -11.607 37.735 C -10.467 37.735 -9.841 35.919 -9.188 34.229 C -5.078 23.588 -1.462 9.263 0 0 " fill="#97ca54"/>
<path transform="matrix(1,0,0,-1,649.7879,438.54933)" d="M 0 0 C -3.106 10.431 4.361 38.695 7.22 47.833 C 6.88 48.339 6.49 48.669 6.006 48.669 C 4.762 48.669 4.2 46.884 3.588 45.163 C .151 35.498 -3.673 20.422 -5.134 11.159 C -6.836 .374 -1.625 -9.099 6.006 -9.099 C 6.692 -9.099 10.072 -7.969 10.722 -7.825 C 5.775 -7.808 1.474 -4.95 0 0 " fill="#89ad42"/>
<path transform="matrix(1,0,0,-1,667.8698,427.6158)" stroke-width="1" stroke-linecap="butt" stroke-miterlimit="10" stroke-linejoin="miter" fill="none" stroke="#006160" d="M 0 0 C 1.702 -10.785 -3.975 -20.032 -11.607 -20.032 C -19.238 -20.032 -24.448 -10.56 -22.747 .225 C -21.285 9.489 -17.462 24.565 -14.025 34.229 C -13.413 35.95 -12.85 37.735 -11.607 37.735 C -10.467 37.735 -9.841 35.919 -9.188 34.229 C -5.078 23.588 -1.462 9.263 0 0 Z "/>
<path transform="matrix(1,0,0,-1,522.5613,378.62403)" stroke-width="1" stroke-linecap="round" stroke-linejoin="round" fill="none" stroke="#69c9c9" d="M 0 0 C -.317 1.98 -1.632 3.465 -3.207 3.465 C -4.705 3.465 -5.964 2.122 -6.358 .289 C -6.759 2.107 -8.013 3.435 -9.502 3.435 C -11.077 3.435 -12.392 1.949 -12.71 -.031 "/>
</g>
<g id="Layer-1" data-name="texto fuera">
</g>
<clipPath id="cp2">
<path transform="matrix(1,0,0,-1,0,623.622)" d="M 0 623.622 L 870.236 623.622 L 870.236 0 L 0 0 Z "/>
</clipPath>
<g clip-path="url(#cp2)">
<path transform="matrix(1,0,0,-1,473.1124,167.22522)" d="M 0 0 C 0 6.669 -5.371 12.073 -12 12.073 C -18.629 12.073 -24 6.669 -24 0 C -24 -6.026 -19.612 -11.02 -13.875 -11.927 L -13.875 -3.49 L -16.923 -3.49 L -16.923 0 L -13.875 0 L -13.875 2.66 C -13.875 5.685 -12.085 7.357 -9.343 7.357 C -8.029 7.357 -6.656 7.121 -6.656 7.121 L -6.656 4.152 L -8.17 4.152 C -9.66 4.152 -10.125 3.221 -10.125 2.266 L -10.125 0 L -6.797 0 L -7.329 -3.49 L -10.125 -3.49 L -10.125 -11.927 C -4.388 -11.02 0 -6.026 0 0 " fill="#8fc84d"/>
<path transform="matrix(1,0,0,-1,461.1124,202.77323)" d="M 0 0 C -.955 0 -1.871 -.379 -2.546 -1.054 C -3.221 -1.729 -3.6 -2.645 -3.6 -3.6 C -3.6 -4.555 -3.221 -5.471 -2.546 -6.146 C -1.871 -6.821 -.955 -7.2 0 -7.2 C .955 -7.2 1.87 -6.821 2.546 -6.146 C 3.221 -5.471 3.6 -4.555 3.6 -3.6 C 3.6 -2.645 3.221 -1.729 2.546 -1.054 C 1.87 -.379 .955 0 0 0 M 0 2.4 C 1.591 2.4 3.117 1.768 4.243 .643 C 5.368 -.483 6 -2.009 6 -3.6 C 6 -5.191 5.368 -6.717 4.243 -7.843 C 3.117 -8.968 1.591 -9.6 0 -9.6 C -1.591 -9.6 -3.117 -8.968 -4.243 -7.843 C -5.368 -6.717 -6 -5.191 -6 -3.6 C -6 -2.009 -5.368 -.483 -4.243 .643 C -3.117 1.768 -1.591 2.4 0 2.4 M 6.3 4.2 C 6.698 4.2 7.079 4.042 7.361 3.761 C 7.642 3.479 7.8 3.098 7.8 2.7 C 7.8 2.302 7.642 1.921 7.361 1.639 C 7.079 1.358 6.698 1.2 6.3 1.2 C 5.902 1.2 5.521 1.358 5.239 1.639 C 4.958 1.921 4.8 2.302 4.8 2.7 C 4.8 3.098 4.958 3.479 5.239 3.761 C 5.521 4.042 5.902 4.2 6.3 4.2 M -5.28 6 C -6.426 6 -7.525 5.545 -8.335 4.735 C -9.145 3.925 -9.6 2.826 -9.6 1.68 L -9.6 -8.88 C -9.6 -10.026 -9.145 -11.125 -8.335 -11.935 C -7.525 -12.745 -6.426 -13.2 -5.28 -13.2 L 5.28 -13.2 C 6.426 -13.2 7.525 -12.745 8.335 -11.935 C 9.145 -11.125 9.6 -10.026 9.6 -8.88 L 9.6 1.68 C 9.6 2.826 9.145 3.925 8.335 4.735 C 7.525 5.545 6.426 6 5.28 6 Z M -5.04 8.4 L 5.04 8.4 C 6.886 8.4 8.656 7.667 9.961 6.361 C 11.267 5.056 12 3.286 12 1.44 L 12 -8.64 C 12 -10.486 11.267 -12.256 9.961 -13.561 C 8.656 -14.867 6.886 -15.6 5.04 -15.6 L -5.04 -15.6 C -6.886 -15.6 -8.656 -14.867 -9.961 -13.561 C -11.267 -12.256 -12 -10.486 -12 -8.64 L -12 1.44 C -12 3.286 -11.267 5.056 -9.961 6.361 C -8.656 7.667 -6.886 8.4 -5.04 8.4 " fill="#8fc84d"/>
<path transform="matrix(1,0,0,-1,461.7112,233.59412)" d="M 0 0 C 6.628 0 12 -5.372 12 -12 C 12 -18.628 6.628 -24 0 -24 C -6.628 -24 -12 -18.628 -12 -12 C -12 -5.372 -6.628 0 0 0 M 6.848 -8.794 C 7.424 -8.314 8.096 -7.741 8.399 -7.105 C 7.907 -7.35 7.325 -7.51 6.672 -7.598 C 7.27 -7.16 7.759 -6.617 8.011 -5.836 C 7.396 -6.162 6.757 -6.46 5.969 -6.612 C 4.109 -4.356 -.346 -6.178 .439 -9.534 C -2.689 -9.342 -4.596 -7.926 -6.181 -6.187 C -7.085 -7.657 -6.299 -9.876 -5.23 -10.483 C -5.782 -10.451 -6.2 -10.279 -6.602 -10.097 C -6.547 -11.945 -5.528 -12.824 -4.103 -13.303 C -4.554 -13.402 -5.02 -13.415 -5.476 -13.339 C -5.034 -14.632 -4.1 -15.436 -2.519 -15.59 C -3.59 -16.507 -5.588 -17.152 -7.201 -16.894 C -5.826 -17.77 -4.243 -18.47 -2.062 -18.372 C 3.228 -18.133 6.772 -14.336 6.848 -8.794 " fill="#8fc84d"/>
</g>
<clipPath id="cp3">
<path transform="matrix(1,0,0,-1,0,623.622)" d="M 630.515 548.599 L 693.08206 548.599 L 693.08206 575.972 L 630.515 575.972 Z "/>
</clipPath>
<g clip-path="url(#cp3)">
<path transform="matrix(1,0,0,-1,630.5153,57.195924)" d="M 0 0 C 0 6.04 3.951 9.532 8.736 9.532 C 9.787 9.548 10.831 9.347 11.804 8.94 C 12.777 8.534 13.659 7.931 14.396 7.169 L 12.258 4.528 C 11.369 5.35 10.412 5.977 8.876 5.977 C 6.118 5.977 4.159 3.786 4.159 .123 C 4.159 -3.619 5.827 -5.796 9.199 -5.796 C 9.869 -5.817 10.528 -5.625 11.086 -5.248 L 11.086 -2.095 L 8.121 -2.095 L 8.121 1.266 L 14.69 1.266 L 14.69 -7.13 C 13.455 -8.36 11.277 -9.322 8.776 -9.322 C 3.854 -9.335 0 -6.136 0 0 " fill="#4b9148"/>
<path transform="matrix(1,0,0,-1,0,623.622)" d="M 652.299 564.952 L 660.924 564.952 L 660.924 561.76406 L 652.299 561.76406 Z M 654.218 575.635 L 659.07 575.635 L 664.692 557.425 L 660.404 557.425 L 658.061 566.645 C 657.563 568.467 657.083 570.62 656.606 572.518 L 656.495 572.518 C 656.062 570.601 655.585 568.467 655.086 566.645 L 652.73 557.425 L 648.59 557.425 Z " fill="#4b9148"/>
<path transform="matrix(1,0,0,-1,0,623.622)" d="M 668.616 575.635 L 672.65908 575.635 L 672.65908 557.425 L 668.616 557.425 Z " fill="#4b9148"/>
<path transform="matrix(1,0,0,-1,0,623.622)" d="M 680.508 564.952 L 689.133 564.952 L 689.133 561.76406 L 680.508 561.76406 Z M 682.425 575.635 L 687.276 575.635 L 692.904 557.425 L 688.618 557.425 L 686.268 566.645 C 685.769 568.467 685.292 570.62 684.813 572.518 L 684.702 572.518 C 684.268 570.601 683.791 568.467 683.292 566.645 L 680.939 557.422 L 676.797 557.422 Z " fill="#4b9148"/>
<path transform="matrix(1,0,0,-1,631.4047,72.00433)" d="M 0 0 C 0 1.956 1.278 3.09 2.825 3.09 C 3.165 3.095 3.503 3.029 3.817 2.897 C 4.132 2.766 4.417 2.57 4.655 2.323 L 3.965 1.468 C 3.824 1.618 3.654 1.738 3.466 1.819 C 3.277 1.9 3.075 1.941 2.87 1.939 C 1.978 1.939 1.342 1.227 1.342 .044 C 1.342 -1.139 1.881 -1.874 2.976 -1.874 C 3.193 -1.881 3.406 -1.82 3.587 -1.698 L 3.587 -.679 L 2.636 -.679 L 2.636 .416 L 4.76 .416 L 4.76 -2.301 C 4.234 -2.775 3.552 -3.03 2.849 -3.016 C 1.251 -3.021 0 -1.986 0 0 " fill="#8fc84d"/>
<path transform="matrix(1,0,0,-1,640.6766,72.45068)" d="M 0 0 L .908 .852 L 2.757 -2.471 L 1.291 -2.471 Z M .135 .707 C .825 .707 1.194 1.008 1.194 1.586 C 1.194 2.164 .825 2.364 .135 2.364 L -.536 2.364 L -.536 .72 Z M -1.846 3.421 L .24 3.421 C 1.472 3.421 2.48 2.989 2.48 1.586 C 2.48 .233 1.472 -.351 .24 -.351 L -.536 -.351 L -.536 -2.471 L -1.846 -2.471 Z " fill="#8fc84d"/>
<path transform="matrix(1,0,0,-1,645.7492,69.02942)" d="M 0 0 L 3.633 0 L 3.633 -1.118 L 1.31 -1.118 L 1.31 -2.301 L 3.288 -2.301 L 3.288 -3.419 L 1.31 -3.419 L 1.31 -4.788 L 3.736 -4.788 L 3.736 -5.906 L 0 -5.906 Z " fill="#8fc84d"/>
<path transform="matrix(1,0,0,-1,652.0914,69.02942)" d="M 0 0 L 3.633 0 L 3.633 -1.118 L 1.31 -1.118 L 1.31 -2.301 L 3.302 -2.301 L 3.302 -3.419 L 1.31 -3.419 L 1.31 -4.788 L 3.736 -4.788 L 3.736 -5.906 L 0 -5.906 Z " fill="#8fc84d"/>
<path transform="matrix(1,0,0,-1,658.4334,69.02942)" d="M 0 0 L 1.348 0 L 2.86 -2.931 L 3.428 -4.218 L 3.464 -4.218 C 3.401 -3.597 3.296 -2.772 3.296 -2.076 L 3.296 0 L 4.547 0 L 4.547 -5.892 L 3.199 -5.892 L 1.687 -2.956 L 1.113 -1.668 L 1.078 -1.668 C 1.14 -2.317 1.245 -3.106 1.245 -3.802 L 1.245 -5.892 L -.003 -5.892 Z " fill="#8fc84d"/>
<path transform="matrix(1,0,0,-1,670.1959,70.14148)" d="M 0 0 L -1.596 0 L -1.596 1.112 L 2.908 1.112 L 2.908 -.005 L 1.31 -.005 L 1.31 -4.78 L 0 -4.78 Z " fill="#8fc84d"/>
<path transform="matrix(1,0,0,-1,675.4733,69.02942)" d="M 0 0 L 3.639 0 L 3.639 -1.118 L 1.318 -1.118 L 1.318 -2.301 L 3.294 -2.301 L 3.294 -3.419 L 1.318 -3.419 L 1.318 -4.788 L 3.728 -4.788 L 3.728 -5.906 L 0 -5.906 Z " fill="#8fc84d"/>
<path transform="matrix(1,0,0,-1,681.5378,72.00433)" d="M 0 0 C 0 1.956 1.269 3.09 2.736 3.09 C 3.062 3.087 3.385 3.018 3.684 2.886 C 3.984 2.754 4.254 2.563 4.48 2.323 L 3.79 1.468 C 3.658 1.612 3.5 1.727 3.324 1.808 C 3.148 1.889 2.958 1.934 2.765 1.939 C 1.97 1.939 1.342 1.227 1.342 .044 C 1.342 -1.139 1.897 -1.874 2.744 -1.874 C 2.96 -1.869 3.174 -1.818 3.369 -1.724 C 3.565 -1.629 3.738 -1.494 3.879 -1.326 L 4.569 -2.148 C 4.34 -2.425 4.054 -2.646 3.73 -2.796 C 3.406 -2.946 3.054 -3.02 2.698 -3.013 C 1.232 -3.021 0 -1.986 0 0 " fill="#8fc84d"/>
<path transform="matrix(1,0,0,-1,688.4594,69.02942)" d="M 0 0 L 1.313 0 L 1.313 -2.271 L 3.321 -2.271 L 3.321 0 L 4.633 0 L 4.633 -5.892 L 3.321 -5.892 L 3.321 -3.427 L 1.321 -3.427 L 1.321 -5.892 L .008 -5.892 Z " fill="#8fc84d"/>
</g>
<clipPath id="cp4">
<path transform="matrix(1,0,0,-1,0,623.622)" d="M 0 623.622 L 870.236 623.622 L 870.236 0 L 0 0 Z "/>
</clipPath>
<g clip-path="url(#cp4)">
<path transform="matrix(1,0,0,-1,613.3387,69.34808)" d="M 0 0 C -.508 .862 -.94 1.767 -1.292 2.705 C -2.94 3.339 -4.314 4.532 -5.175 6.075 C -6.036 7.618 -6.33 9.415 -6.005 11.153 C -5.68 12.89 -4.758 14.459 -3.398 15.586 C -2.037 16.714 -.326 17.328 1.44 17.324 L 11.603 17.324 C 12.182 17.324 12.738 17.554 13.148 17.964 C 13.557 18.374 13.787 18.93 13.787 19.51 C 13.787 20.09 13.557 20.646 13.148 21.057 C 12.738 21.467 12.182 21.697 11.603 21.697 L 1.44 21.697 C -.14 21.72 -1.709 21.428 -3.175 20.839 C -4.642 20.249 -5.977 19.374 -7.102 18.264 C -8.228 17.153 -9.122 15.83 -9.732 14.371 C -10.342 12.911 -10.656 11.345 -10.656 9.763 C -10.656 8.181 -10.342 6.615 -9.732 5.156 C -9.122 3.697 -8.228 2.374 -7.102 1.263 C -5.977 .153 -4.642 -.723 -3.175 -1.312 C -1.709 -1.901 -.14 -2.193 1.44 -2.17 L 1.856 -2.17 C 1.126 -1.55 .5 -.817 0 0 " fill="#4b9148"/>
<path transform="matrix(1,0,0,-1,614.3949,63.392518)" d="M 0 0 C 8.497 -4.021 8.409 -8.638 8.409 -8.638 C 11.422 2.569 -4.954 3.808 -4.954 3.808 C -2.566 2.702 -2.566 -1.639 -.354 -5.316 C 1.858 -8.993 6.676 -9.611 6.676 -9.611 C 6.92 -10.294 7.016 -11.022 6.958 -11.745 L 7.862 -11.745 C 7.683 -4.705 0 0 0 0 " fill="#8fc84d"/>
<path transform="matrix(1,0,0,-1,623.7039,57.077028)" d="M 0 0 L -10.575 0 C -11.006 0 -11.427 -.126 -11.788 -.362 C -12.148 -.599 -12.431 -.935 -12.603 -1.331 C -9.499 -1.889 -4.009 -3.378 -1.301 -7.217 C .156 -9.265 .614 -11.707 .072 -14.443 C .649 -14.425 1.196 -14.183 1.597 -13.767 C 1.998 -13.351 2.22 -12.794 2.217 -12.216 L 2.217 -2.219 C 2.217 -1.63 1.983 -1.066 1.567 -.65 C 1.152 -.234 .588 0 0 0 " fill="#4b9148"/>
<g opacity=".800003">
<clipPath id="cp5">
<path transform="matrix(1,0,0,-1,0,623.622)" d="M 91.1661 373.522 L 149.151 373.522 L 149.151 432.108 L 91.1661 432.108 Z "/>
</clipPath>
<g clip-path="url(#cp5)">
<path transform="matrix(1,0,0,-1,104.1636,247.4335)" d="M 0 0 L 17.891 21.966 C 18.978 23.3 19.521 24.917 19.521 26.541 C 19.521 28.165 18.978 29.782 17.891 31.116 L -.139 53.251 C -2.668 56.353 -7.225 56.818 -10.328 54.289 C -13.43 51.766 -13.895 47.203 -11.372 44.1 L 2.934 26.541 L -11.233 9.151 C -13.756 6.048 -13.292 1.485 -10.189 -1.038 C -7.086 -3.567 -2.529 -3.097 0 0 " fill="#f0f1f0"/>
<path transform="matrix(1,0,0,-1,129.6301,247.4335)" d="M 0 0 L 17.891 21.966 C 18.978 23.3 19.521 24.917 19.521 26.541 C 19.521 28.165 18.978 29.782 17.891 31.116 L -.139 53.251 C -2.668 56.353 -7.225 56.818 -10.328 54.289 C -13.43 51.76 -13.895 47.203 -11.366 44.1 L 2.934 26.541 L -11.227 9.151 C -13.756 6.048 -13.286 1.485 -10.189 -1.038 C -7.086 -3.567 -2.523 -3.097 0 0 " fill="#f0f1f0"/>
</g>
</g>
<g opacity=".800003">
<clipPath id="cp6">
<path transform="matrix(1,0,0,-1,0,623.622)" d="M 168.775 373.522 L 226.76 373.522 L 226.76 432.108 L 168.775 432.108 Z "/>
</clipPath>
<g clip-path="url(#cp6)">
<path transform="matrix(1,0,0,-1,181.7726,247.4335)" d="M 0 0 L 17.891 21.966 C 18.978 23.3 19.521 24.917 19.521 26.541 C 19.521 28.165 18.978 29.782 17.891 31.116 L -.139 53.251 C -2.668 56.353 -7.225 56.818 -10.328 54.289 C -13.43 51.766 -13.895 47.203 -11.372 44.1 L 2.934 26.541 L -11.233 9.151 C -13.756 6.048 -13.292 1.485 -10.189 -1.038 C -7.086 -3.567 -2.529 -3.097 0 0 " fill="#f0f1f0"/>
<path transform="matrix(1,0,0,-1,207.2391,247.4335)" d="M 0 0 L 17.891 21.966 C 18.978 23.3 19.521 24.917 19.521 26.541 C 19.521 28.165 18.978 29.782 17.891 31.116 L -.139 53.251 C -2.668 56.353 -7.225 56.818 -10.328 54.289 C -13.43 51.76 -13.895 47.203 -11.366 44.1 L 2.934 26.541 L -11.227 9.151 C -13.756 6.048 -13.286 1.485 -10.189 -1.038 C -7.086 -3.567 -2.523 -3.097 0 0 " fill="#f0f1f0"/>
</g>
</g>
<g opacity=".5">
<clipPath id="cp7">
<path transform="matrix(1,0,0,-1,0,623.622)" d="M 54.8221 403.864 L 98.1683 403.864 L 98.1683 426.892 L 54.8221 426.892 Z "/>
</clipPath>
<g clip-path="url(#cp7)">
<path transform="matrix(1,0,0,-1,88.6863,215.4404)" d="M 0 0 L 0 14.392 C 0 14.533 -.114 14.646 -.254 14.646 L -29.547 14.646 C -29.687 14.646 -29.801 14.533 -29.801 14.392 L -29.801 0 C -29.801 -.14 -29.687 -.254 -29.547 -.254 L -.254 -.254 C -.114 -.254 0 -.14 0 0 " fill="#8fc84d"/>
<path transform="matrix(1,0,0,-1,58.8858,217.04892)" d="M 0 0 C -.747 0 -1.355 .608 -1.355 1.355 L -1.355 16.255 C -1.355 17.002 -.747 17.609 0 17.609 L 29.801 17.609 C 30.547 17.609 31.155 17.002 31.155 16.255 L 31.155 1.355 C 31.155 .608 30.547 0 29.801 0 Z M 33.864 .677 L 33.864 4.064 L 37.251 4.064 C 38.371 4.064 39.282 4.975 39.282 6.096 L 39.282 11.514 C 39.282 12.634 38.371 13.546 37.251 13.546 L 33.864 13.546 L 33.864 16.932 C 33.864 18.8 32.345 20.319 30.478 20.319 L -.677 20.319 C -2.545 20.319 -4.064 18.8 -4.064 16.932 L -4.064 .677 C -4.064 -1.19 -2.545 -2.709 -.677 -2.709 L 30.478 -2.709 C 32.345 -2.709 33.864 -1.19 33.864 .677 " fill="#8fc84d"/>
</g>
</g>
<path transform="matrix(1,0,0,-1,87.1824,220.685)" d="M 0 0 L -11.951 0 L -11.951 3.984 C -11.951 4.717 -12.546 5.312 -13.279 5.312 C -14.012 5.312 -14.607 4.717 -14.607 3.984 L -14.607 -1.328 C -14.607 -2.061 -14.012 -2.656 -13.279 -2.656 L 0 -2.656 C .733 -2.656 1.328 -2.061 1.328 -1.328 C 1.328 -.595 .733 0 0 0 " fill="#006160"/>
<path transform="matrix(1,0,0,-1,107.1013,232.63642)" d="M 0 0 C 0 -.693 -1.022 -1.293 -1.328 -1.328 L -2.656 -1.328 C -2.656 3.065 -6.231 6.64 -10.623 6.64 C -15.016 6.64 -18.591 3.065 -18.591 -1.328 L -42.494 -1.328 C -42.494 3.065 -46.069 6.64 -50.461 6.64 C -54.002 6.64 -57.01 4.316 -58.044 1.115 C -58.261 2.303 -58.429 4.056 -58.429 6.64 C -58.429 10.169 -56.971 12.963 -53.975 15.189 C -53.664 15.42 -53.471 15.773 -53.441 16.158 C -53.412 16.543 -53.553 16.921 -53.826 17.194 L -53.895 17.263 L -50.602 17.263 C -50.427 17.263 -50.252 17.298 -50.092 17.367 C -44.571 19.669 -38.295 19.919 -35.854 19.919 C -21.794 19.919 -12.91 12.352 -12.822 12.278 C -12.581 12.068 -12.273 11.951 -11.951 11.951 C -3.338 11.951 -.019 6.438 0 5.312 Z M -10.623 -6.64 C -13.553 -6.64 -15.935 -4.257 -15.935 -1.328 C -15.935 1.602 -13.553 3.984 -10.623 3.984 C -7.694 3.984 -5.312 1.602 -5.312 -1.328 C -5.312 -4.257 -7.694 -6.64 -10.623 -6.64 M -50.461 -6.64 C -53.391 -6.64 -55.773 -4.257 -55.773 -1.328 C -55.773 1.602 -53.391 3.984 -50.461 3.984 C -47.532 3.984 -45.15 1.602 -45.15 -1.328 C -45.15 -4.257 -47.532 -6.64 -50.461 -6.64 M -11.468 14.602 C -13.412 16.153 -22.291 22.575 -35.854 22.575 C -38.42 22.575 -44.966 22.312 -50.865 19.919 L -57.101 19.919 C -57.637 19.919 -58.124 19.595 -58.328 19.098 C -58.535 18.602 -58.421 18.033 -58.041 17.651 L -56.742 16.355 C -59.627 13.768 -61.085 10.507 -61.085 6.64 C -61.085 2.507 -60.747 -2.861 -58.024 -3.83 C -56.972 -7.001 -53.98 -9.296 -50.461 -9.296 C -47 -9.296 -44.047 -7.075 -42.951 -3.984 L -18.134 -3.984 C -17.037 -7.075 -14.085 -9.296 -10.623 -9.296 C -7.162 -9.296 -4.209 -7.075 -3.113 -3.984 L -1.328 -3.984 C .276 -3.984 2.656 -2.311 2.656 0 L 2.656 5.312 C 2.656 7.829 -1.692 14.392 -11.468 14.602 " fill="#006160"/>
<g opacity=".5">
<clipPath id="cp8">
<path transform="matrix(1,0,0,-1,0,623.622)" d="M 140.6 403.864 L 183.946 403.864 L 183.946 426.892 L 140.6 426.892 Z "/>
</clipPath>
<g clip-path="url(#cp8)">
<path transform="matrix(1,0,0,-1,174.4643,215.4404)" d="M 0 0 L 0 14.392 C 0 14.533 -.114 14.646 -.254 14.646 L -29.547 14.646 C -29.687 14.646 -29.8 14.533 -29.8 14.392 L -29.8 0 C -29.8 -.14 -29.687 -.254 -29.547 -.254 L -.254 -.254 C -.114 -.254 0 -.14 0 0 " fill="#8fc84d"/>
<path transform="matrix(1,0,0,-1,144.6638,217.04892)" d="M 0 0 C -.747 0 -1.355 .608 -1.355 1.355 L -1.355 16.255 C -1.355 17.002 -.747 17.609 0 17.609 L 29.8 17.609 C 30.547 17.609 31.155 17.002 31.155 16.255 L 31.155 1.355 C 31.155 .608 30.547 0 29.8 0 Z M 33.864 .677 L 33.864 4.064 L 37.251 4.064 C 38.371 4.064 39.282 4.975 39.282 6.096 L 39.282 11.514 C 39.282 12.634 38.371 13.546 37.251 13.546 L 33.864 13.546 L 33.864 16.932 C 33.864 18.8 32.345 20.319 30.478 20.319 L -.677 20.319 C -2.545 20.319 -4.064 18.8 -4.064 16.932 L -4.064 .677 C -4.064 -1.19 -2.545 -2.709 -.677 -2.709 L 30.478 -2.709 C 32.345 -2.709 33.864 -1.19 33.864 .677 " fill="#8fc84d"/>
</g>
</g>
<path transform="matrix(1,0,0,-1,161.1265,203.74521)" stroke-width="2" stroke-linecap="butt" stroke-miterlimit="10" stroke-linejoin="miter" fill="none" stroke="#006160" d="M 0 0 L -14.872 -13.296 C -15.21 -13.598 -15.402 -14.02 -15.402 -14.462 L -15.402 -32.809 C -15.402 -33.692 -14.651 -34.408 -13.725 -34.408 L -4.81 -34.408 C -3.884 -34.408 -3.133 -33.692 -3.133 -32.809 L -3.133 -24.245 C -3.133 -23.362 -2.382 -22.646 -1.456 -22.646 L 4.606 -22.646 C 5.532 -22.646 6.282 -23.362 6.282 -24.245 L 6.282 -32.809 C 6.282 -33.692 7.033 -34.408 7.959 -34.408 L 16.019 -34.408 C 16.945 -34.408 17.695 -33.692 17.695 -32.809 L 17.695 -14.462 C 17.695 -14.02 17.503 -13.598 17.165 -13.296 L 2.293 0 C 1.648 .577 .645 .577 0 0 Z "/>
<path transform="matrix(1,0,0,-1,259.0179,216.0408)" d="M 0 0 L -3.046 5.275 L -.456 6.771 C -.02 7.023 .222 7.513 .156 8.012 C .09 8.511 -.27 8.922 -.756 9.052 L -12.004 12.065 C -12.668 12.243 -13.351 11.849 -13.529 11.185 L -16.543 -.062 C -16.673 -.549 -16.498 -1.066 -16.098 -1.372 C -15.699 -1.679 -15.154 -1.715 -14.718 -1.463 L -12.127 .033 L -5.695 -11.109 L 0 -1.245 C .222 -.86 .222 -.385 0 0 " fill="#006160"/>
<g opacity=".5">
<clipPath id="cp9">
<path transform="matrix(1,0,0,-1,0,623.622)" d="M 242.947 388.389 L 251.886 388.389 L 251.886 404.212 L 242.947 404.212 Z "/>
</clipPath>
<g clip-path="url(#cp9)">
<path transform="matrix(1,0,0,-1,245.5452,219.66031)" d="M 0 0 C -.003 -.002 -.006 -.003 -.009 -.005 L -2.598 -4.49 L .6 -7.688 C 2.056 -9.144 2.056 -11.514 .6 -12.97 L -2.002 -15.573 L 2.392 -15.573 C 2.837 -15.573 3.248 -15.335 3.471 -14.95 L 6.341 -9.979 L .434 .25 Z " fill="#8fc84d"/>
</g>
</g>
<path transform="matrix(1,0,0,-1,244.3842,229.1095)" d="M 0 0 L -8.233 8.234 C -8.589 8.59 -9.125 8.697 -9.59 8.504 C -10.055 8.311 -10.359 7.857 -10.359 7.354 L -10.359 4.362 L -23.224 4.362 L -17.529 -5.501 C -17.307 -5.886 -16.896 -6.124 -16.451 -6.124 L -10.36 -6.124 L -10.359 -9.115 C -10.359 -9.618 -10.056 -10.072 -9.59 -10.265 C -9.125 -10.458 -8.59 -10.351 -8.234 -9.995 L 0 -1.761 C .486 -1.274 .486 -.486 0 0 " fill="#006160"/>
<g opacity=".5">
<clipPath id="cp10">
<path transform="matrix(1,0,0,-1,0,623.622)" d="M 216.686 401.365 L 231.535 401.365 L 231.535 411.386 L 216.686 411.386 Z "/>
</clipPath>
<g clip-path="url(#cp10)">
<path transform="matrix(1,0,0,-1,231.5353,221.75562)" d="M 0 0 C 0 .003 0 .007 0 .01 L -2.589 4.495 L -6.959 3.325 C -9.043 2.766 -11.025 4.07 -11.533 5.965 L -12.486 9.52 L -14.682 5.715 C -14.905 5.329 -14.905 4.855 -14.682 4.469 L -11.813 -.501 L 0 -.501 Z " fill="#8fc84d"/>
</g>
</g>
<g opacity=".5">
<clipPath id="cp11">
<path transform="matrix(1,0,0,-1,0,623.622)" d="M 236.291 415.042 L 251.213 415.042 L 251.213 425.528 L 236.291 425.528 Z "/>
</clipPath>
<g clip-path="url(#cp11)">
<path transform="matrix(1,0,0,-1,236.7255,208.5751)" d="M 0 0 C .003 -.002 .006 -.004 .009 -.005 L 5.187 -.005 L 6.358 4.364 C 6.853 6.209 8.804 7.575 10.933 7.005 L 14.487 6.053 L 12.29 9.858 C 12.068 10.243 11.657 10.481 11.212 10.481 L 5.472 10.481 L -.434 .251 Z " fill="#8fc84d"/>
</g>
</g>
<path transform="matrix(1,0,0,-1,222.4076,215.1453)" d="M 0 0 C .178 -.664 .861 -1.058 1.525 -.88 L 12.772 2.133 C 13.259 2.263 13.619 2.674 13.685 3.173 C 13.75 3.672 13.509 4.162 13.073 4.414 L 10.482 5.91 L 16.915 17.051 L 5.525 17.051 C 5.08 17.051 4.669 16.814 4.447 16.428 L 1.401 11.153 L -1.189 12.648 C -1.625 12.9 -2.17 12.864 -2.57 12.558 C -2.969 12.251 -3.145 11.734 -3.014 11.248 Z " fill="#006160"/>
</g>
</g>
</g>
</g>
</svg>
