<svg xmlns="http://www.w3.org/2000/svg" viewBox="0 0 31.84 20.92"><defs><style>.cls-1{fill:#8fc84e;opacity:0.5;}.cls-2{fill:#008b8c;}</style></defs><g id="Layer_2" data-name="Layer 2"><g id="_1" data-name="1"><g id="Capa_7" data-name="Capa 7"><path class="cls-1" d="M23.66,9.63h-12a.37.37,0,0,0-.37.37v1.53a.35.35,0,0,0,.35.37.37.37,0,0,1,.39.37v1.5a.38.38,0,0,0,.38.38h1.15a.38.38,0,0,0,.37-.38v-1.5a.75.75,0,0,1,.75-.74h6a.74.74,0,0,1,.75.74v1.5a.38.38,0,0,0,.38.38h1.15a.38.38,0,0,0,.37-.38v-1.5a.36.36,0,0,1,.36-.37.37.37,0,0,0,.39-.37V10A.38.38,0,0,0,23.66,9.63Z"/><path class="cls-1" d="M19.59,8.88l-.09-.45a.37.37,0,0,0-.36-.3h-3a.38.38,0,0,0-.37.3l-.08.45Z"/><path class="cls-1" d="M20.67,14.68a.42.42,0,0,1,0-.16v0l-.41-2.22H18V13a.37.37,0,0,1-.37.38.38.38,0,0,1-.38-.38v-.75h-2.2l-.42,2.22v0a.41.41,0,0,1,0,.16l-1.09,5.79a.38.38,0,0,0,.37.45h7.49a.36.36,0,0,0,.29-.14.39.39,0,0,0,.08-.31ZM18,19.79a.37.37,0,0,1-.37.38.38.38,0,0,1-.38-.38V19a.38.38,0,0,1,.38-.37A.37.37,0,0,1,18,19Zm0-2.27a.36.36,0,0,1-.37.37.37.37,0,0,1-.38-.37v-.75a.37.37,0,0,1,.38-.37.36.36,0,0,1,.37.37Zm0-2.25a.37.37,0,0,1-.37.38.38.38,0,0,1-.38-.38v-.75a.38.38,0,0,1,.38-.37.37.37,0,0,1,.37.37Z"/><path class="cls-2" d="M8.38,13.41A6.75,6.75,0,0,0,13,11.57a6.85,6.85,0,0,0,2.15-5,6.75,6.75,0,0,0-1.5-4.26,2.57,2.57,0,0,0-2-.94H5.1a2.63,2.63,0,0,0-2.1,1A6.71,6.71,0,0,0,1.59,7.11,6.82,6.82,0,0,0,7.93,13.4ZM1.88,7.09A6.55,6.55,0,0,1,3.22,2.61,2.39,2.39,0,0,1,5.1,1.69h6.56a2.28,2.28,0,0,1,1.81.84,6.52,6.52,0,0,1-.63,8.83A6.45,6.45,0,0,1,8,13.11,6.52,6.52,0,0,1,1.88,7.09Z"/><path class="cls-2" d="M6.4,4.85A1.33,1.33,0,1,0,5.07,3.52,1.32,1.32,0,0,0,6.4,4.85Zm0-2.37a1,1,0,1,1-1,1A1,1,0,0,1,6.4,2.48Z"/><path class="cls-2" d="M10.66,4.85A1.33,1.33,0,1,0,9.33,3.52,1.33,1.33,0,0,0,10.66,4.85Zm0-2.37a1,1,0,0,1,0,2.08,1,1,0,1,1,0-2.08Z"/><path class="cls-2" d="M6.09,6.72A1.78,1.78,0,1,0,4.31,8.5,1.79,1.79,0,0,0,6.09,6.72ZM4.31,8.21A1.5,1.5,0,1,1,5.8,6.72,1.49,1.49,0,0,1,4.31,8.21Z"/><path class="cls-2" d="M6.4,8.58a1.79,1.79,0,1,0,1.79,1.79A1.79,1.79,0,0,0,6.4,8.58Zm0,3.28a1.5,1.5,0,1,1,1.5-1.49A1.49,1.49,0,0,1,6.4,11.86Z"/><path class="cls-2" d="M10.66,8.58a1.79,1.79,0,1,0,1.78,1.79A1.79,1.79,0,0,0,10.66,8.58Zm0,3.28a1.5,1.5,0,1,1,1.49-1.49A1.5,1.5,0,0,1,10.66,11.86Z"/><path class="cls-2" d="M6.62,6.72A1.79,1.79,0,1,0,8.4,4.93,1.78,1.78,0,0,0,6.62,6.72ZM8.4,5.22a1.5,1.5,0,1,1-1.49,1.5A1.5,1.5,0,0,1,8.4,5.22Z"/><path class="cls-2" d="M6.4,15.7a1.79,1.79,0,1,0,1.79,1.79A1.79,1.79,0,0,0,6.4,15.7ZM6.4,19a1.5,1.5,0,1,1,1.5-1.49A1.49,1.49,0,0,1,6.4,19Z"/><path class="cls-2" d="M10.66,15.7a1.79,1.79,0,1,0,1.78,1.79A1.79,1.79,0,0,0,10.66,15.7Zm0,3.28a1.5,1.5,0,1,1,1.49-1.49A1.5,1.5,0,0,1,10.66,19Z"/><path class="cls-2" d="M10.71,6.72a1.79,1.79,0,1,0,1.78-1.79A1.78,1.78,0,0,0,10.71,6.72Zm1.78-1.5A1.5,1.5,0,1,1,11,6.72,1.5,1.5,0,0,1,12.49,5.22Z"/><path class="cls-2" d="M13.18,14.8H10.66a.66.66,0,0,0-.09-.28,8.35,8.35,0,0,0,3.54-2,8.39,8.39,0,0,0,.81-11.36A3.24,3.24,0,0,0,12.36,0h-8A3.37,3.37,0,0,0,1.75,1.3,8.39,8.39,0,0,0,6.36,14.57a.44.44,0,0,0-.06.23H3.62a2.69,2.69,0,0,0,0,5.37h9.56a2.69,2.69,0,0,0,0-5.37ZM.6,7A7.8,7.8,0,0,1,2.21,1.66,2.74,2.74,0,0,1,4.4.58h8a2.65,2.65,0,0,1,2.1,1,7.64,7.64,0,0,1,1.72,4.87,7.72,7.72,0,0,1-2.47,5.69,7.69,7.69,0,0,1-5.85,2.09A7.8,7.8,0,0,1,.6,7ZM13.18,19.59H3.62a2.11,2.11,0,0,1,0-4.21h9.56a2.11,2.11,0,0,1,0,4.21Z"/><path class="cls-1" d="M31.53,3.52h-2a.36.36,0,0,1-.36-.5l.91-2.8c.09-.27,0-.3-.11,0L28,3.52H26.29a.36.36,0,0,1-.36-.5l.91-2.8c.09-.27,0-.3-.11,0L24.28,4.23c-.15.25,0,.45.25.45h1.62a.35.35,0,0,1,.35.49L25.33,8.51c-.1.27,0,.3.11.06L28,4.68h1.43a.34.34,0,0,1,.35.49L28.61,8.51c-.09.27,0,.3.12.06l3-4.62C31.92,3.71,31.82,3.52,31.53,3.52Z"/></g></g></g></svg>