<svg xmlns="http://www.w3.org/2000/svg" viewBox="0 0 24.75 19.46"><defs><style>.cls-1{fill:#8fc84e;opacity:0.5;}.cls-2{fill:#008b8c;}</style></defs><g id="Layer_2" data-name="Layer 2"><g id="_1" data-name="1"><g id="Capa_7" data-name="Capa 7"><path class="cls-1" d="M18.12,6.58l-5.56,5a.57.57,0,0,0-.2.43v6.87a.61.61,0,0,0,.62.6h3.34a.62.62,0,0,0,.63-.6V15.65a.62.62,0,0,1,.63-.6h2.27a.61.61,0,0,1,.62.6v3.21a.62.62,0,0,0,.63.6h3a.62.62,0,0,0,.63-.6V12a.6.6,0,0,0-.2-.43L19,6.58A.64.64,0,0,0,18.12,6.58Z"/><path class="cls-2" d="M17.34,6.12l-.08-.22H15.88v-2l-.06-.09A8.63,8.63,0,0,0,8.67,0,8.32,8.32,0,0,0,1.89,3.48l-.07.09V5.9H.44l-.08.22a7,7,0,0,0,0,4.42l.08.22H1.82v2.67l.07.09c.9,1.13,3.35,3.76,6.78,3.76a8.63,8.63,0,0,0,7.15-3.78l.06-.08V10.76h1.38l.08-.22A7,7,0,0,0,17.34,6.12ZM8.28.68l.39,0a7.93,7.93,0,0,1,1,.06V1.86a.36.36,0,0,1-.36.36H8.63a.36.36,0,0,1-.35-.36ZM.91,10.1a6.27,6.27,0,0,1,0-3.54h.91V10.1ZM9.7,16.56H8.32V15.24a.36.36,0,0,1,.36-.36h.66a.36.36,0,0,1,.36.36Zm5.52-3.35A8,8,0,0,1,10,16.5V15.24a.69.69,0,0,0-.69-.69H8.68a.68.68,0,0,0-.68.69v1.34A8.78,8.78,0,0,1,2.48,13.2V3.79A7.69,7.69,0,0,1,8,.7V1.86a.69.69,0,0,0,.68.69h.66A.69.69,0,0,0,10,1.86V.78a8,8,0,0,1,5.24,3.29v9.14Zm1.57-3.11h-.91V6.56h.91A6.27,6.27,0,0,1,16.79,10.1Z"/><path class="cls-2" d="M5.32,7.48A1.16,1.16,0,1,0,6.48,8.64,1.16,1.16,0,0,0,5.32,7.48Z"/><path class="cls-2" d="M13,7.48a1.16,1.16,0,1,0,1.16,1.16A1.16,1.16,0,0,0,13,7.48Z"/></g></g></g></svg>